<svg width="1860" height="625" viewBox="0 0 1860 625" fill="none" xmlns="http://www.w3.org/2000/svg">
<rect width="1860" height="625" fill="#C5D9C9"/>
<rect x="803" y="55" width="289" height="71" rx="35.5" fill="white"/>
<path d="M890.38 82L885.66 75.8V82H882.24V67.96H885.66V74.12L890.34 67.96H894.36L888.92 74.84L894.56 82H890.38ZM899.605 70.7V73.54H904.185V76.18H899.605V79.26H904.785V82H896.185V67.96H904.785V70.7H899.605ZM917.706 72.48C917.706 73.2933 917.519 74.04 917.146 74.72C916.772 75.3867 916.199 75.9267 915.426 76.34C914.652 76.7533 913.692 76.96 912.546 76.96H910.426V82H907.006V67.96H912.546C913.666 67.96 914.612 68.1533 915.386 68.54C916.159 68.9267 916.739 69.46 917.126 70.14C917.512 70.82 917.706 71.6 917.706 72.48ZM912.286 74.24C912.939 74.24 913.426 74.0867 913.746 73.78C914.066 73.4733 914.226 73.04 914.226 72.48C914.226 71.92 914.066 71.4867 913.746 71.18C913.426 70.8733 912.939 70.72 912.286 70.72H910.426V74.24H912.286ZM928.226 79.52H922.986L922.146 82H918.566L923.646 67.96H927.606L932.686 82H929.066L928.226 79.52ZM927.346 76.88L925.606 71.74L923.886 76.88H927.346ZM937.652 79.36H942.132V82H934.232V67.96H937.652V79.36ZM952.503 79.52H947.263L946.423 82H942.843L947.923 67.96H951.883L956.963 82H953.343L952.503 79.52ZM951.623 76.88L949.883 71.74L948.163 76.88H951.623ZM968.008 67.96C969.488 67.96 970.781 68.2533 971.888 68.84C972.994 69.4267 973.848 70.2533 974.448 71.32C975.061 72.3733 975.368 73.5933 975.368 74.98C975.368 76.3533 975.061 77.5733 974.448 78.64C973.848 79.7067 972.988 80.5333 971.868 81.12C970.761 81.7067 969.474 82 968.008 82H962.748V67.96H968.008ZM967.788 79.04C969.081 79.04 970.088 78.6867 970.808 77.98C971.528 77.2733 971.888 76.2733 971.888 74.98C971.888 73.6867 971.528 72.68 970.808 71.96C970.088 71.24 969.081 70.88 967.788 70.88H966.168V79.04H967.788ZM980.699 70.7V73.54H985.279V76.18H980.699V79.26H985.879V82H977.279V67.96H985.879V70.7H980.699ZM993.179 82.14C992.153 82.14 991.233 81.9733 990.419 81.64C989.606 81.3067 988.953 80.8133 988.459 80.16C987.979 79.5067 987.726 78.72 987.699 77.8H991.339C991.393 78.32 991.573 78.72 991.879 79C992.186 79.2667 992.586 79.4 993.079 79.4C993.586 79.4 993.986 79.2867 994.279 79.06C994.573 78.82 994.719 78.4933 994.719 78.08C994.719 77.7333 994.599 77.4467 994.359 77.22C994.133 76.9933 993.846 76.8067 993.499 76.66C993.166 76.5133 992.686 76.3467 992.059 76.16C991.153 75.88 990.413 75.6 989.839 75.32C989.266 75.04 988.773 74.6267 988.359 74.08C987.946 73.5333 987.739 72.82 987.739 71.94C987.739 70.6333 988.213 69.6133 989.159 68.88C990.106 68.1333 991.339 67.76 992.859 67.76C994.406 67.76 995.653 68.1333 996.599 68.88C997.546 69.6133 998.053 70.64 998.119 71.96H994.419C994.393 71.5067 994.226 71.1533 993.919 70.9C993.613 70.6333 993.219 70.5 992.739 70.5C992.326 70.5 991.993 70.6133 991.739 70.84C991.486 71.0533 991.359 71.3667 991.359 71.78C991.359 72.2333 991.573 72.5867 991.999 72.84C992.426 73.0933 993.093 73.3667 993.999 73.66C994.906 73.9667 995.639 74.26 996.199 74.54C996.773 74.82 997.266 75.2267 997.679 75.76C998.093 76.2933 998.299 76.98 998.299 77.82C998.299 78.62 998.093 79.3467 997.679 80C997.279 80.6533 996.693 81.1733 995.919 81.56C995.146 81.9467 994.233 82.14 993.179 82.14ZM1009.14 79.52H1003.9L1003.06 82H999.484L1004.56 67.96H1008.52L1013.6 82H1009.98L1009.14 79.52ZM1008.26 76.88L1006.52 71.74L1004.8 76.88H1008.26Z" fill="#4E9882"/>
<path d="M917.82 112.14C916.793 112.14 915.873 111.973 915.06 111.64C914.247 111.307 913.593 110.813 913.1 110.16C912.62 109.507 912.367 108.72 912.34 107.8H915.98C916.033 108.32 916.213 108.72 916.52 109C916.827 109.267 917.227 109.4 917.72 109.4C918.227 109.4 918.627 109.287 918.92 109.06C919.213 108.82 919.36 108.493 919.36 108.08C919.36 107.733 919.24 107.447 919 107.22C918.773 106.993 918.487 106.807 918.14 106.66C917.807 106.513 917.327 106.347 916.7 106.16C915.793 105.88 915.053 105.6 914.48 105.32C913.907 105.04 913.413 104.627 913 104.08C912.587 103.533 912.38 102.82 912.38 101.94C912.38 100.633 912.853 99.6133 913.8 98.88C914.747 98.1333 915.98 97.76 917.5 97.76C919.047 97.76 920.293 98.1333 921.24 98.88C922.187 99.6133 922.693 100.64 922.76 101.96H919.06C919.033 101.507 918.867 101.153 918.56 100.9C918.253 100.633 917.86 100.5 917.38 100.5C916.967 100.5 916.633 100.613 916.38 100.84C916.127 101.053 916 101.367 916 101.78C916 102.233 916.213 102.587 916.64 102.84C917.067 103.093 917.733 103.367 918.64 103.66C919.547 103.967 920.28 104.26 920.84 104.54C921.413 104.82 921.907 105.227 922.32 105.76C922.733 106.293 922.94 106.98 922.94 107.82C922.94 108.62 922.733 109.347 922.32 110C921.92 110.653 921.333 111.173 920.56 111.56C919.787 111.947 918.873 112.14 917.82 112.14ZM936.065 100.84V112H932.645V110.48C932.298 110.973 931.825 111.373 931.225 111.68C930.638 111.973 929.985 112.12 929.265 112.12C928.411 112.12 927.658 111.933 927.005 111.56C926.351 111.173 925.845 110.62 925.485 109.9C925.125 109.18 924.945 108.333 924.945 107.36V100.84H928.345V106.9C928.345 107.647 928.538 108.227 928.925 108.64C929.311 109.053 929.831 109.26 930.485 109.26C931.151 109.26 931.678 109.053 932.065 108.64C932.451 108.227 932.645 107.647 932.645 106.9V100.84H936.065ZM949.921 100.84L942.921 117.3H939.241L941.801 111.62L937.261 100.84H941.081L943.661 107.82L946.221 100.84H949.921ZM950.478 106.4C950.478 105.253 950.691 104.247 951.118 103.38C951.558 102.513 952.151 101.847 952.898 101.38C953.645 100.913 954.478 100.68 955.398 100.68C956.185 100.68 956.871 100.84 957.458 101.16C958.058 101.48 958.518 101.9 958.838 102.42V100.84H962.258V112H958.838V110.42C958.505 110.94 958.038 111.36 957.438 111.68C956.851 112 956.165 112.16 955.378 112.16C954.471 112.16 953.645 111.927 952.898 111.46C952.151 110.98 951.558 110.307 951.118 109.44C950.691 108.56 950.478 107.547 950.478 106.4ZM958.838 106.42C958.838 105.567 958.598 104.893 958.118 104.4C957.651 103.907 957.078 103.66 956.398 103.66C955.718 103.66 955.138 103.907 954.658 104.4C954.191 104.88 953.958 105.547 953.958 106.4C953.958 107.253 954.191 107.933 954.658 108.44C955.138 108.933 955.718 109.18 956.398 109.18C957.078 109.18 957.651 108.933 958.118 108.44C958.598 107.947 958.838 107.273 958.838 106.42ZM971.532 100.72C972.839 100.72 973.879 101.147 974.652 102C975.439 102.84 975.832 104 975.832 105.48V112H972.432V105.94C972.432 105.193 972.239 104.613 971.852 104.2C971.466 103.787 970.946 103.58 970.292 103.58C969.639 103.58 969.119 103.787 968.732 104.2C968.346 104.613 968.152 105.193 968.152 105.94V112H964.732V100.84H968.152V102.32C968.499 101.827 968.966 101.44 969.552 101.16C970.139 100.867 970.799 100.72 971.532 100.72ZM979.929 99.68C979.329 99.68 978.835 99.5067 978.449 99.16C978.075 98.8 977.889 98.36 977.889 97.84C977.889 97.3067 978.075 96.8667 978.449 96.52C978.835 96.16 979.329 95.98 979.929 95.98C980.515 95.98 980.995 96.16 981.369 96.52C981.755 96.8667 981.949 97.3067 981.949 97.84C981.949 98.36 981.755 98.8 981.369 99.16C980.995 99.5067 980.515 99.68 979.929 99.68ZM981.629 100.84V112H978.209V100.84H981.629Z" fill="black"/>
<line x1="949" y1="126" x2="949" y2="464" stroke="black" stroke-width="2"/>
<line x1="948" y1="150" x2="1385" y2="150" stroke="black" stroke-width="2"/>
<line x1="482" y1="248" x2="948" y2="248" stroke="black" stroke-width="2"/>
<line x1="501" y1="463" x2="1357" y2="463" stroke="black" stroke-width="2"/>
<line x1="1384" y1="149.947" x2="1384" y2="169.052" stroke="black" stroke-width="2"/>
<line x1="1118" y1="258" x2="1118" y2="277.105" stroke="black" stroke-width="2"/>
<line x1="1384" y1="258" x2="1384" y2="277.105" stroke="black" stroke-width="2"/>
<line x1="1664" y1="258" x2="1664" y2="277.105" stroke="black" stroke-width="2"/>
<line x1="1384" y1="239" x2="1384" y2="258.105" stroke="black" stroke-width="2"/>
<rect x="1263" y="169" width="240" height="70" rx="35" fill="white"/>
<path d="M1301.32 196.14C1300.29 196.14 1299.37 195.973 1298.56 195.64C1297.75 195.307 1297.09 194.813 1296.6 194.16C1296.12 193.507 1295.87 192.72 1295.84 191.8H1299.48C1299.53 192.32 1299.71 192.72 1300.02 193C1300.33 193.267 1300.73 193.4 1301.22 193.4C1301.73 193.4 1302.13 193.287 1302.42 193.06C1302.71 192.82 1302.86 192.493 1302.86 192.08C1302.86 191.733 1302.74 191.447 1302.5 191.22C1302.27 190.993 1301.99 190.807 1301.64 190.66C1301.31 190.513 1300.83 190.347 1300.2 190.16C1299.29 189.88 1298.55 189.6 1297.98 189.32C1297.41 189.04 1296.91 188.627 1296.5 188.08C1296.09 187.533 1295.88 186.82 1295.88 185.94C1295.88 184.633 1296.35 183.613 1297.3 182.88C1298.25 182.133 1299.48 181.76 1301 181.76C1302.55 181.76 1303.79 182.133 1304.74 182.88C1305.69 183.613 1306.19 184.64 1306.26 185.96H1302.56C1302.53 185.507 1302.37 185.153 1302.06 184.9C1301.75 184.633 1301.36 184.5 1300.88 184.5C1300.47 184.5 1300.13 184.613 1299.88 184.84C1299.63 185.053 1299.5 185.367 1299.5 185.78C1299.5 186.233 1299.71 186.587 1300.14 186.84C1300.57 187.093 1301.23 187.367 1302.14 187.66C1303.05 187.967 1303.78 188.26 1304.34 188.54C1304.91 188.82 1305.41 189.227 1305.82 189.76C1306.23 190.293 1306.44 190.98 1306.44 191.82C1306.44 192.62 1306.23 193.347 1305.82 194C1305.42 194.653 1304.83 195.173 1304.06 195.56C1303.29 195.947 1302.37 196.14 1301.32 196.14ZM1311.96 184.7V187.54H1316.54V190.18H1311.96V193.26H1317.14V196H1308.54V181.96H1317.14V184.7H1311.96ZM1327.51 196L1322.79 189.8V196H1319.37V181.96H1322.79V188.12L1327.47 181.96H1331.49L1326.05 188.84L1331.69 196H1327.51ZM1340.47 196L1337.55 190.7H1336.73V196H1333.31V181.96H1339.05C1340.16 181.96 1341.1 182.153 1341.87 182.54C1342.66 182.927 1343.24 183.46 1343.63 184.14C1344.02 184.807 1344.21 185.553 1344.21 186.38C1344.21 187.313 1343.94 188.147 1343.41 188.88C1342.89 189.613 1342.12 190.133 1341.09 190.44L1344.33 196H1340.47ZM1336.73 188.28H1338.85C1339.48 188.28 1339.94 188.127 1340.25 187.82C1340.57 187.513 1340.73 187.08 1340.73 186.52C1340.73 185.987 1340.57 185.567 1340.25 185.26C1339.94 184.953 1339.48 184.8 1338.85 184.8H1336.73V188.28ZM1349.78 184.7V187.54H1354.36V190.18H1349.78V193.26H1354.96V196H1346.36V181.96H1354.96V184.7H1349.78ZM1367.28 181.96V184.7H1363.56V196H1360.14V184.7H1356.42V181.96H1367.28ZM1377.73 193.52H1372.49L1371.65 196H1368.07L1373.15 181.96H1377.11L1382.19 196H1378.57L1377.73 193.52ZM1376.85 190.88L1375.11 185.74L1373.39 190.88H1376.85ZM1390.9 196L1387.98 190.7H1387.16V196H1383.74V181.96H1389.48C1390.59 181.96 1391.53 182.153 1392.3 182.54C1393.09 182.927 1393.67 183.46 1394.06 184.14C1394.45 184.807 1394.64 185.553 1394.64 186.38C1394.64 187.313 1394.37 188.147 1393.84 188.88C1393.32 189.613 1392.55 190.133 1391.52 190.44L1394.76 196H1390.9ZM1387.16 188.28H1389.28C1389.91 188.28 1390.37 188.127 1390.68 187.82C1391 187.513 1391.16 187.08 1391.16 186.52C1391.16 185.987 1391 185.567 1390.68 185.26C1390.37 184.953 1389.91 184.8 1389.28 184.8H1387.16V188.28ZM1400.21 181.96V196H1396.79V181.96H1400.21ZM1407.77 196.14C1406.74 196.14 1405.82 195.973 1405.01 195.64C1404.19 195.307 1403.54 194.813 1403.05 194.16C1402.57 193.507 1402.31 192.72 1402.29 191.8H1405.93C1405.98 192.32 1406.16 192.72 1406.47 193C1406.77 193.267 1407.17 193.4 1407.67 193.4C1408.17 193.4 1408.57 193.287 1408.87 193.06C1409.16 192.82 1409.31 192.493 1409.31 192.08C1409.31 191.733 1409.19 191.447 1408.95 191.22C1408.72 190.993 1408.43 190.807 1408.09 190.66C1407.75 190.513 1407.27 190.347 1406.65 190.16C1405.74 189.88 1405 189.6 1404.43 189.32C1403.85 189.04 1403.36 188.627 1402.95 188.08C1402.53 187.533 1402.33 186.82 1402.33 185.94C1402.33 184.633 1402.8 183.613 1403.75 182.88C1404.69 182.133 1405.93 181.76 1407.45 181.76C1408.99 181.76 1410.24 182.133 1411.19 182.88C1412.13 183.613 1412.64 184.64 1412.71 185.96H1409.01C1408.98 185.507 1408.81 185.153 1408.51 184.9C1408.2 184.633 1407.81 184.5 1407.33 184.5C1406.91 184.5 1406.58 184.613 1406.33 184.84C1406.07 185.053 1405.95 185.367 1405.95 185.78C1405.95 186.233 1406.16 186.587 1406.59 186.84C1407.01 187.093 1407.68 187.367 1408.59 187.66C1409.49 187.967 1410.23 188.26 1410.79 188.54C1411.36 188.82 1411.85 189.227 1412.27 189.76C1412.68 190.293 1412.89 190.98 1412.89 191.82C1412.89 192.62 1412.68 193.347 1412.27 194C1411.87 194.653 1411.28 195.173 1410.51 195.56C1409.73 195.947 1408.82 196.14 1407.77 196.14ZM1424.49 181.96C1425.97 181.96 1427.26 182.253 1428.37 182.84C1429.47 183.427 1430.33 184.253 1430.93 185.32C1431.54 186.373 1431.85 187.593 1431.85 188.98C1431.85 190.353 1431.54 191.573 1430.93 192.64C1430.33 193.707 1429.47 194.533 1428.35 195.12C1427.24 195.707 1425.95 196 1424.49 196H1419.23V181.96H1424.49ZM1424.27 193.04C1425.56 193.04 1426.57 192.687 1427.29 191.98C1428.01 191.273 1428.37 190.273 1428.37 188.98C1428.37 187.687 1428.01 186.68 1427.29 185.96C1426.57 185.24 1425.56 184.88 1424.27 184.88H1422.65V193.04H1424.27ZM1437.18 184.7V187.54H1441.76V190.18H1437.18V193.26H1442.36V196H1433.76V181.96H1442.36V184.7H1437.18ZM1449.66 196.14C1448.63 196.14 1447.71 195.973 1446.9 195.64C1446.09 195.307 1445.43 194.813 1444.94 194.16C1444.46 193.507 1444.21 192.72 1444.18 191.8H1447.82C1447.87 192.32 1448.05 192.72 1448.36 193C1448.67 193.267 1449.07 193.4 1449.56 193.4C1450.07 193.4 1450.47 193.287 1450.76 193.06C1451.05 192.82 1451.2 192.493 1451.2 192.08C1451.2 191.733 1451.08 191.447 1450.84 191.22C1450.61 190.993 1450.33 190.807 1449.98 190.66C1449.65 190.513 1449.17 190.347 1448.54 190.16C1447.63 189.88 1446.89 189.6 1446.32 189.32C1445.75 189.04 1445.25 188.627 1444.84 188.08C1444.43 187.533 1444.22 186.82 1444.22 185.94C1444.22 184.633 1444.69 183.613 1445.64 182.88C1446.59 182.133 1447.82 181.76 1449.34 181.76C1450.89 181.76 1452.13 182.133 1453.08 182.88C1454.03 183.613 1454.53 184.64 1454.6 185.96H1450.9C1450.87 185.507 1450.71 185.153 1450.4 184.9C1450.09 184.633 1449.7 184.5 1449.22 184.5C1448.81 184.5 1448.47 184.613 1448.22 184.84C1447.97 185.053 1447.84 185.367 1447.84 185.78C1447.84 186.233 1448.05 186.587 1448.48 186.84C1448.91 187.093 1449.57 187.367 1450.48 187.66C1451.39 187.967 1452.12 188.26 1452.68 188.54C1453.25 188.82 1453.75 189.227 1454.16 189.76C1454.57 190.293 1454.78 190.98 1454.78 191.82C1454.78 192.62 1454.57 193.347 1454.16 194C1453.76 194.653 1453.17 195.173 1452.4 195.56C1451.63 195.947 1450.71 196.14 1449.66 196.14ZM1465.62 193.52H1460.38L1459.54 196H1455.96L1461.04 181.96H1465L1470.08 196H1466.46L1465.62 193.52ZM1464.74 190.88L1463 185.74L1461.28 190.88H1464.74Z" fill="#4E9882"/>
<path d="M1358.64 211.96V226H1355.22V217.58L1352.08 226H1349.32L1346.16 217.56V226H1342.74V211.96H1346.78L1350.72 221.68L1354.62 211.96H1358.64ZM1372.12 214.84V226H1368.7V224.48C1368.35 224.973 1367.88 225.373 1367.28 225.68C1366.69 225.973 1366.04 226.12 1365.32 226.12C1364.47 226.12 1363.71 225.933 1363.06 225.56C1362.41 225.173 1361.9 224.62 1361.54 223.9C1361.18 223.18 1361 222.333 1361 221.36V214.84H1364.4V220.9C1364.4 221.647 1364.59 222.227 1364.98 222.64C1365.37 223.053 1365.89 223.26 1366.54 223.26C1367.21 223.26 1367.73 223.053 1368.12 222.64C1368.51 222.227 1368.7 221.647 1368.7 220.9V214.84H1372.12ZM1376.28 213.68C1375.68 213.68 1375.18 213.507 1374.8 213.16C1374.42 212.8 1374.24 212.36 1374.24 211.84C1374.24 211.307 1374.42 210.867 1374.8 210.52C1375.18 210.16 1375.68 209.98 1376.28 209.98C1376.86 209.98 1377.34 210.16 1377.72 210.52C1378.1 210.867 1378.3 211.307 1378.3 211.84C1378.3 212.36 1378.1 212.8 1377.72 213.16C1377.34 213.507 1376.86 213.68 1376.28 213.68ZM1378 227.44C1378 228.813 1377.65 229.8 1376.96 230.4C1376.26 231.013 1375.3 231.32 1374.06 231.32H1372.72V228.42H1373.54C1373.91 228.42 1374.18 228.347 1374.34 228.2C1374.5 228.053 1374.58 227.813 1374.58 227.48V214.84H1378V227.44ZM1382.17 213.68C1381.57 213.68 1381.08 213.507 1380.69 213.16C1380.32 212.8 1380.13 212.36 1380.13 211.84C1380.13 211.307 1380.32 210.867 1380.69 210.52C1381.08 210.16 1381.57 209.98 1382.17 209.98C1382.76 209.98 1383.24 210.16 1383.61 210.52C1384 210.867 1384.19 211.307 1384.19 211.84C1384.19 212.36 1384 212.8 1383.61 213.16C1383.24 213.507 1382.76 213.68 1382.17 213.68ZM1383.87 214.84V226H1380.45V214.84H1383.87ZM1391.43 226.16C1390.34 226.16 1389.35 225.927 1388.47 225.46C1387.61 224.993 1386.92 224.327 1386.41 223.46C1385.92 222.593 1385.67 221.58 1385.67 220.42C1385.67 219.273 1385.93 218.267 1386.43 217.4C1386.94 216.52 1387.63 215.847 1388.51 215.38C1389.39 214.913 1390.38 214.68 1391.47 214.68C1392.57 214.68 1393.55 214.913 1394.43 215.38C1395.31 215.847 1396.01 216.52 1396.51 217.4C1397.02 218.267 1397.27 219.273 1397.27 220.42C1397.27 221.567 1397.01 222.58 1396.49 223.46C1395.99 224.327 1395.29 224.993 1394.39 225.46C1393.51 225.927 1392.53 226.16 1391.43 226.16ZM1391.43 223.2C1392.09 223.2 1392.64 222.96 1393.09 222.48C1393.56 222 1393.79 221.313 1393.79 220.42C1393.79 219.527 1393.57 218.84 1393.11 218.36C1392.67 217.88 1392.13 217.64 1391.47 217.64C1390.81 217.64 1390.25 217.88 1389.81 218.36C1389.37 218.827 1389.15 219.513 1389.15 220.42C1389.15 221.313 1389.37 222 1389.79 222.48C1390.23 222.96 1390.78 223.2 1391.43 223.2ZM1405.89 214.72C1407.19 214.72 1408.23 215.147 1409.01 216C1409.79 216.84 1410.19 218 1410.19 219.48V226H1406.79V219.94C1406.79 219.193 1406.59 218.613 1406.21 218.2C1405.82 217.787 1405.3 217.58 1404.65 217.58C1403.99 217.58 1403.47 217.787 1403.09 218.2C1402.7 218.613 1402.51 219.193 1402.51 219.94V226H1399.09V214.84H1402.51V216.32C1402.85 215.827 1403.32 215.44 1403.91 215.16C1404.49 214.867 1405.15 214.72 1405.89 214.72ZM1417.64 226.16C1416.55 226.16 1415.56 225.927 1414.68 225.46C1413.82 224.993 1413.13 224.327 1412.62 223.46C1412.13 222.593 1411.88 221.58 1411.88 220.42C1411.88 219.273 1412.14 218.267 1412.64 217.4C1413.15 216.52 1413.84 215.847 1414.72 215.38C1415.6 214.913 1416.59 214.68 1417.68 214.68C1418.78 214.68 1419.76 214.913 1420.64 215.38C1421.52 215.847 1422.22 216.52 1422.72 217.4C1423.23 218.267 1423.48 219.273 1423.48 220.42C1423.48 221.567 1423.22 222.58 1422.7 223.46C1422.2 224.327 1421.5 224.993 1420.6 225.46C1419.72 225.927 1418.74 226.16 1417.64 226.16ZM1417.64 223.2C1418.3 223.2 1418.85 222.96 1419.3 222.48C1419.77 222 1420 221.313 1420 220.42C1420 219.527 1419.78 218.84 1419.32 218.36C1418.88 217.88 1418.34 217.64 1417.68 217.64C1417.02 217.64 1416.46 217.88 1416.02 218.36C1415.58 218.827 1415.36 219.513 1415.36 220.42C1415.36 221.313 1415.58 222 1416 222.48C1416.44 222.96 1416.99 223.2 1417.64 223.2Z" fill="black"/>
<line x1="1117" y1="257" x2="1665" y2="257" stroke="black" stroke-width="2"/>
<rect x="996" y="277" width="245" height="70" rx="35" fill="white"/>
<path d="M1037.38 304L1032.66 297.8V304H1029.24V289.96H1032.66V296.12L1037.34 289.96H1041.36L1035.92 296.84L1041.56 304H1037.38ZM1051.93 301.52H1046.69L1045.85 304H1042.27L1047.35 289.96H1051.31L1056.39 304H1052.77L1051.93 301.52ZM1051.05 298.88L1049.31 293.74L1047.59 298.88H1051.05ZM1061.29 289.96V298.36C1061.29 299.2 1061.5 299.847 1061.91 300.3C1062.32 300.753 1062.93 300.98 1063.73 300.98C1064.53 300.98 1065.14 300.753 1065.57 300.3C1066 299.847 1066.21 299.2 1066.21 298.36V289.96H1069.63V298.34C1069.63 299.593 1069.36 300.653 1068.83 301.52C1068.3 302.387 1067.58 303.04 1066.67 303.48C1065.78 303.92 1064.78 304.14 1063.67 304.14C1062.56 304.14 1061.57 303.927 1060.69 303.5C1059.82 303.06 1059.14 302.407 1058.63 301.54C1058.12 300.66 1057.87 299.593 1057.87 298.34V289.96H1061.29ZM1079.19 304L1076.27 298.7H1075.45V304H1072.03V289.96H1077.77C1078.88 289.96 1079.82 290.153 1080.59 290.54C1081.38 290.927 1081.97 291.46 1082.35 292.14C1082.74 292.807 1082.93 293.553 1082.93 294.38C1082.93 295.313 1082.67 296.147 1082.13 296.88C1081.61 297.613 1080.84 298.133 1079.81 298.44L1083.05 304H1079.19ZM1075.45 296.28H1077.57C1078.2 296.28 1078.67 296.127 1078.97 295.82C1079.29 295.513 1079.45 295.08 1079.45 294.52C1079.45 293.987 1079.29 293.567 1078.97 293.26C1078.67 292.953 1078.2 292.8 1077.57 292.8H1075.45V296.28ZM1099.42 289.96V292.7H1095.7V304H1092.28V292.7H1088.56V289.96H1099.42ZM1102.73 304.16C1102.13 304.16 1101.64 303.987 1101.25 303.64C1100.88 303.28 1100.69 302.84 1100.69 302.32C1100.69 301.787 1100.88 301.34 1101.25 300.98C1101.64 300.62 1102.13 300.44 1102.73 300.44C1103.32 300.44 1103.8 300.62 1104.17 300.98C1104.56 301.34 1104.75 301.787 1104.75 302.32C1104.75 302.84 1104.56 303.28 1104.17 303.64C1103.8 303.987 1103.32 304.16 1102.73 304.16ZM1110.14 289.96V298.36C1110.14 299.2 1110.35 299.847 1110.76 300.3C1111.17 300.753 1111.78 300.98 1112.58 300.98C1113.38 300.98 1113.99 300.753 1114.42 300.3C1114.85 299.847 1115.06 299.2 1115.06 298.36V289.96H1118.48V298.34C1118.48 299.593 1118.21 300.653 1117.68 301.52C1117.15 302.387 1116.43 303.04 1115.52 303.48C1114.63 303.92 1113.63 304.14 1112.52 304.14C1111.41 304.14 1110.42 303.927 1109.54 303.5C1108.67 303.06 1107.99 302.407 1107.48 301.54C1106.97 300.66 1106.72 299.593 1106.72 298.34V289.96H1110.14ZM1135.86 304L1134.56 302.74C1133.27 303.727 1131.72 304.22 1129.92 304.22C1128.84 304.22 1127.9 304.047 1127.1 303.7C1126.3 303.34 1125.68 302.84 1125.24 302.2C1124.81 301.547 1124.6 300.787 1124.6 299.92C1124.6 299.04 1124.83 298.247 1125.3 297.54C1125.78 296.82 1126.49 296.233 1127.44 295.78C1127.09 295.353 1126.85 294.947 1126.7 294.56C1126.55 294.16 1126.48 293.727 1126.48 293.26C1126.48 292.593 1126.65 291.987 1127 291.44C1127.35 290.893 1127.85 290.467 1128.5 290.16C1129.17 289.84 1129.95 289.68 1130.86 289.68C1131.78 289.68 1132.56 289.847 1133.2 290.18C1133.84 290.513 1134.32 290.96 1134.64 291.52C1134.96 292.08 1135.11 292.693 1135.08 293.36H1131.86C1131.87 293 1131.78 292.727 1131.58 292.54C1131.39 292.34 1131.14 292.24 1130.82 292.24C1130.5 292.24 1130.23 292.333 1130.02 292.52C1129.81 292.707 1129.7 292.947 1129.7 293.24C1129.7 293.52 1129.79 293.813 1129.96 294.12C1130.15 294.427 1130.43 294.78 1130.82 295.18L1134.24 298.52C1134.27 298.453 1134.3 298.373 1134.34 298.28C1134.39 298.187 1134.45 298.08 1134.5 297.96L1135.24 296.7H1138.66L1137.7 298.44C1137.34 299.227 1136.93 299.973 1136.46 300.68L1139.84 304H1135.86ZM1130.08 301.46C1130.97 301.46 1131.77 301.207 1132.46 300.7L1129.34 297.68C1128.38 298.173 1127.9 298.84 1127.9 299.68C1127.9 300.187 1128.09 300.613 1128.48 300.96C1128.88 301.293 1129.41 301.46 1130.08 301.46ZM1148.67 289.96V298.36C1148.67 299.2 1148.88 299.847 1149.29 300.3C1149.71 300.753 1150.31 300.98 1151.11 300.98C1151.91 300.98 1152.53 300.753 1152.95 300.3C1153.38 299.847 1153.59 299.2 1153.59 298.36V289.96H1157.01V298.34C1157.01 299.593 1156.75 300.653 1156.21 301.52C1155.68 302.387 1154.96 303.04 1154.05 303.48C1153.16 303.92 1152.16 304.14 1151.05 304.14C1149.95 304.14 1148.95 303.927 1148.07 303.5C1147.21 303.06 1146.52 302.407 1146.01 301.54C1145.51 300.66 1145.25 299.593 1145.25 298.34V289.96H1148.67ZM1175.32 289.96V304H1171.9V295.58L1168.76 304H1166L1162.84 295.56V304H1159.42V289.96H1163.46L1167.4 299.68L1171.3 289.96H1175.32ZM1181.14 289.96V298.36C1181.14 299.2 1181.34 299.847 1181.76 300.3C1182.17 300.753 1182.78 300.98 1183.58 300.98C1184.38 300.98 1184.99 300.753 1185.42 300.3C1185.84 299.847 1186.06 299.2 1186.06 298.36V289.96H1189.48V298.34C1189.48 299.593 1189.21 300.653 1188.68 301.52C1188.14 302.387 1187.42 303.04 1186.52 303.48C1185.62 303.92 1184.62 304.14 1183.52 304.14C1182.41 304.14 1181.42 303.927 1180.54 303.5C1179.67 303.06 1178.98 302.407 1178.48 301.54C1177.97 300.66 1177.72 299.593 1177.72 298.34V289.96H1181.14ZM1207.78 289.96V304H1204.36V295.58L1201.22 304H1198.46L1195.3 295.56V304H1191.88V289.96H1195.92L1199.86 299.68L1203.76 289.96H1207.78Z" fill="#4E9882"/>
<path d="M1122.34 325.56V328.4H1113.54V325.56H1122.34Z" fill="black"/>
<rect x="1265" y="277" width="238" height="70" rx="35" fill="white"/>
<path d="M1306.38 304L1301.66 297.8V304H1298.24V289.96H1301.66V296.12L1306.34 289.96H1310.36L1304.92 296.84L1310.56 304H1306.38ZM1320.93 301.52H1315.69L1314.85 304H1311.27L1316.35 289.96H1320.31L1325.39 304H1321.77L1320.93 301.52ZM1320.05 298.88L1318.31 293.74L1316.59 298.88H1320.05ZM1330.29 289.96V298.36C1330.29 299.2 1330.5 299.847 1330.91 300.3C1331.32 300.753 1331.93 300.98 1332.73 300.98C1333.53 300.98 1334.14 300.753 1334.57 300.3C1335 299.847 1335.21 299.2 1335.21 298.36V289.96H1338.63V298.34C1338.63 299.593 1338.36 300.653 1337.83 301.52C1337.3 302.387 1336.58 303.04 1335.67 303.48C1334.78 303.92 1333.78 304.14 1332.67 304.14C1331.56 304.14 1330.57 303.927 1329.69 303.5C1328.82 303.06 1328.14 302.407 1327.63 301.54C1327.12 300.66 1326.87 299.593 1326.87 298.34V289.96H1330.29ZM1348.19 304L1345.27 298.7H1344.45V304H1341.03V289.96H1346.77C1347.88 289.96 1348.82 290.153 1349.59 290.54C1350.38 290.927 1350.97 291.46 1351.35 292.14C1351.74 292.807 1351.93 293.553 1351.93 294.38C1351.93 295.313 1351.67 296.147 1351.13 296.88C1350.61 297.613 1349.84 298.133 1348.81 298.44L1352.05 304H1348.19ZM1344.45 296.28H1346.57C1347.2 296.28 1347.67 296.127 1347.97 295.82C1348.29 295.513 1348.45 295.08 1348.45 294.52C1348.45 293.987 1348.29 293.567 1347.97 293.26C1347.67 292.953 1347.2 292.8 1346.57 292.8H1344.45V296.28ZM1366.46 304L1361.74 297.8V304H1358.32V289.96H1361.74V296.12L1366.42 289.96H1370.44L1365 296.84L1370.64 304H1366.46ZM1375.68 292.7V295.54H1380.26V298.18H1375.68V301.26H1380.86V304H1372.26V289.96H1380.86V292.7H1375.68ZM1386.44 289.96V298.36C1386.44 299.2 1386.65 299.847 1387.06 300.3C1387.48 300.753 1388.08 300.98 1388.88 300.98C1389.68 300.98 1390.3 300.753 1390.72 300.3C1391.15 299.847 1391.36 299.2 1391.36 298.36V289.96H1394.78V298.34C1394.78 299.593 1394.52 300.653 1393.98 301.52C1393.45 302.387 1392.73 303.04 1391.82 303.48C1390.93 303.92 1389.93 304.14 1388.82 304.14C1387.72 304.14 1386.72 303.927 1385.84 303.5C1384.98 303.06 1384.29 302.407 1383.78 301.54C1383.28 300.66 1383.02 299.593 1383.02 298.34V289.96H1386.44ZM1405.93 301.52H1400.69L1399.85 304H1396.27L1401.35 289.96H1405.31L1410.39 304H1406.77L1405.93 301.52ZM1405.05 298.88L1403.31 293.74L1401.59 298.88H1405.05ZM1424.49 304H1421.07L1415.35 295.34V304H1411.93V289.96H1415.35L1421.07 298.66V289.96H1424.49V304ZM1436.29 294.4C1436.04 293.933 1435.67 293.58 1435.19 293.34C1434.72 293.087 1434.17 292.96 1433.53 292.96C1432.42 292.96 1431.54 293.327 1430.87 294.06C1430.2 294.78 1429.87 295.747 1429.87 296.96C1429.87 298.253 1430.22 299.267 1430.91 300C1431.62 300.72 1432.58 301.08 1433.81 301.08C1434.65 301.08 1435.36 300.867 1435.93 300.44C1436.52 300.013 1436.94 299.4 1437.21 298.6H1432.87V296.08H1440.31V299.26C1440.06 300.113 1439.62 300.907 1439.01 301.64C1438.41 302.373 1437.64 302.967 1436.71 303.42C1435.78 303.873 1434.72 304.1 1433.55 304.1C1432.16 304.1 1430.92 303.8 1429.83 303.2C1428.75 302.587 1427.9 301.74 1427.29 300.66C1426.69 299.58 1426.39 298.347 1426.39 296.96C1426.39 295.573 1426.69 294.34 1427.29 293.26C1427.9 292.167 1428.75 291.32 1429.83 290.72C1430.91 290.107 1432.14 289.8 1433.53 289.8C1435.21 289.8 1436.62 290.207 1437.77 291.02C1438.93 291.833 1439.7 292.96 1440.07 294.4H1436.29ZM1450.94 301.52H1445.7L1444.86 304H1441.28L1446.36 289.96H1450.32L1455.4 304H1451.78L1450.94 301.52ZM1450.06 298.88L1448.32 293.74L1446.6 298.88H1450.06ZM1469.51 304H1466.09L1460.37 295.34V304H1456.95V289.96H1460.37L1466.09 298.66V289.96H1469.51V304Z" fill="#4E9882"/>
<path d="M1387.84 325.56V328.4H1379.04V325.56H1387.84Z" fill="black"/>
<rect x="1525" y="277" width="276" height="70" rx="35" fill="white"/>
<path d="M1566.38 304L1561.66 297.8V304H1558.24V289.96H1561.66V296.12L1566.34 289.96H1570.36L1564.92 296.84L1570.56 304H1566.38ZM1580.93 301.52H1575.69L1574.85 304H1571.27L1576.35 289.96H1580.31L1585.39 304H1581.77L1580.93 301.52ZM1580.05 298.88L1578.31 293.74L1576.59 298.88H1580.05ZM1590.29 289.96V298.36C1590.29 299.2 1590.5 299.847 1590.91 300.3C1591.32 300.753 1591.93 300.98 1592.73 300.98C1593.53 300.98 1594.14 300.753 1594.57 300.3C1595 299.847 1595.21 299.2 1595.21 298.36V289.96H1598.63V298.34C1598.63 299.593 1598.36 300.653 1597.83 301.52C1597.3 302.387 1596.58 303.04 1595.67 303.48C1594.78 303.92 1593.78 304.14 1592.67 304.14C1591.56 304.14 1590.57 303.927 1589.69 303.5C1588.82 303.06 1588.14 302.407 1587.63 301.54C1587.12 300.66 1586.87 299.593 1586.87 298.34V289.96H1590.29ZM1608.19 304L1605.27 298.7H1604.45V304H1601.03V289.96H1606.77C1607.88 289.96 1608.82 290.153 1609.59 290.54C1610.38 290.927 1610.97 291.46 1611.35 292.14C1611.74 292.807 1611.93 293.553 1611.93 294.38C1611.93 295.313 1611.67 296.147 1611.13 296.88C1610.61 297.613 1609.84 298.133 1608.81 298.44L1612.05 304H1608.19ZM1604.45 296.28H1606.57C1607.2 296.28 1607.67 296.127 1607.97 295.82C1608.29 295.513 1608.45 295.08 1608.45 294.52C1608.45 293.987 1608.29 293.567 1607.97 293.26C1607.67 292.953 1607.2 292.8 1606.57 292.8H1604.45V296.28ZM1629.02 294.48C1629.02 295.293 1628.83 296.04 1628.46 296.72C1628.08 297.387 1627.51 297.927 1626.74 298.34C1625.96 298.753 1625 298.96 1623.86 298.96H1621.74V304H1618.32V289.96H1623.86C1624.98 289.96 1625.92 290.153 1626.7 290.54C1627.47 290.927 1628.05 291.46 1628.44 292.14C1628.82 292.82 1629.02 293.6 1629.02 294.48ZM1623.6 296.24C1624.25 296.24 1624.74 296.087 1625.06 295.78C1625.38 295.473 1625.54 295.04 1625.54 294.48C1625.54 293.92 1625.38 293.487 1625.06 293.18C1624.74 292.873 1624.25 292.72 1623.6 292.72H1621.74V296.24H1623.6ZM1634.22 292.7V295.54H1638.8V298.18H1634.22V301.26H1639.4V304H1630.8V289.96H1639.4V292.7H1634.22ZM1648.78 304L1645.86 298.7H1645.04V304H1641.62V289.96H1647.36C1648.47 289.96 1649.41 290.153 1650.18 290.54C1650.97 290.927 1651.55 291.46 1651.94 292.14C1652.33 292.807 1652.52 293.553 1652.52 294.38C1652.52 295.313 1652.25 296.147 1651.72 296.88C1651.2 297.613 1650.43 298.133 1649.4 298.44L1652.64 304H1648.78ZM1645.04 296.28H1647.16C1647.79 296.28 1648.25 296.127 1648.56 295.82C1648.88 295.513 1649.04 295.08 1649.04 294.52C1649.04 293.987 1648.88 293.567 1648.56 293.26C1648.25 292.953 1647.79 292.8 1647.16 292.8H1645.04V296.28ZM1658.09 292.7V295.54H1662.67V298.18H1658.09V301.26H1663.27V304H1654.67V289.96H1663.27V292.7H1658.09ZM1678.05 304H1674.63L1668.91 295.34V304H1665.49V289.96H1668.91L1674.63 298.66V289.96H1678.05V304ZM1679.95 296.96C1679.95 295.573 1680.25 294.34 1680.85 293.26C1681.45 292.167 1682.28 291.32 1683.35 290.72C1684.43 290.107 1685.65 289.8 1687.01 289.8C1688.67 289.8 1690.1 290.24 1691.29 291.12C1692.47 292 1693.27 293.2 1693.67 294.72H1689.91C1689.63 294.133 1689.23 293.687 1688.71 293.38C1688.2 293.073 1687.62 292.92 1686.97 292.92C1685.91 292.92 1685.06 293.287 1684.41 294.02C1683.75 294.753 1683.43 295.733 1683.43 296.96C1683.43 298.187 1683.75 299.167 1684.41 299.9C1685.06 300.633 1685.91 301 1686.97 301C1687.62 301 1688.2 300.847 1688.71 300.54C1689.23 300.233 1689.63 299.787 1689.91 299.2H1693.67C1693.27 300.72 1692.47 301.92 1691.29 302.8C1690.1 303.667 1688.67 304.1 1687.01 304.1C1685.65 304.1 1684.43 303.8 1683.35 303.2C1682.28 302.587 1681.45 301.74 1680.85 300.66C1680.25 299.58 1679.95 298.347 1679.95 296.96ZM1704.5 301.52H1699.26L1698.42 304H1694.84L1699.92 289.96H1703.88L1708.96 304H1705.34L1704.5 301.52ZM1703.62 298.88L1701.88 293.74L1700.16 298.88H1703.62ZM1723.07 304H1719.65L1713.93 295.34V304H1710.51V289.96H1713.93L1719.65 298.66V289.96H1723.07V304ZM1734.28 301.52H1729.04L1728.2 304H1724.62L1729.7 289.96H1733.66L1738.74 304H1735.12L1734.28 301.52ZM1733.4 298.88L1731.66 293.74L1729.94 298.88H1733.4ZM1749.03 301.52H1743.79L1742.95 304H1739.37L1744.45 289.96H1748.41L1753.49 304H1749.87L1749.03 301.52ZM1748.15 298.88L1746.41 293.74L1744.69 298.88H1748.15ZM1767.6 304H1764.18L1758.46 295.34V304H1755.04V289.96H1758.46L1764.18 298.66V289.96H1767.6V304Z" fill="#4E9882"/>
<path d="M1666.84 325.56V328.4H1658.04V325.56H1666.84Z" fill="black"/>
<line x1="483" y1="249" x2="483" y2="313" stroke="black" stroke-width="2"/>
<line x1="182" y1="310.053" x2="182" y2="329.158" stroke="black" stroke-width="2"/>
<line x1="483" y1="310.053" x2="483" y2="329.158" stroke="black" stroke-width="2"/>
<line x1="763" y1="310.053" x2="763" y2="329.158" stroke="black" stroke-width="2"/>
<line x1="502" y1="464" x2="502" y2="483.105" stroke="black" stroke-width="2"/>
<line x1="949" y1="464" x2="949" y2="483.105" stroke="black" stroke-width="2"/>
<line x1="1356" y1="464" x2="1356" y2="483.105" stroke="black" stroke-width="2"/>
<line x1="181" y1="309" x2="764" y2="309" stroke="black" stroke-width="2"/>
<rect x="44" y="329" width="273" height="70" rx="35" fill="white"/>
<path d="M85.38 356L80.66 349.8V356H77.24V341.96H80.66V348.12L85.34 341.96H89.36L83.92 348.84L89.56 356H85.38ZM99.9253 353.52H94.6853L93.8453 356H90.2653L95.3453 341.96H99.3053L104.385 356H100.765L99.9253 353.52ZM99.0453 350.88L97.3053 345.74L95.5853 350.88H99.0453ZM111.011 356.14C109.985 356.14 109.065 355.973 108.251 355.64C107.438 355.307 106.785 354.813 106.291 354.16C105.811 353.507 105.558 352.72 105.531 351.8H109.171C109.225 352.32 109.405 352.72 109.711 353C110.018 353.267 110.418 353.4 110.911 353.4C111.418 353.4 111.818 353.287 112.111 353.06C112.405 352.82 112.551 352.493 112.551 352.08C112.551 351.733 112.431 351.447 112.191 351.22C111.965 350.993 111.678 350.807 111.331 350.66C110.998 350.513 110.518 350.347 109.891 350.16C108.985 349.88 108.245 349.6 107.671 349.32C107.098 349.04 106.605 348.627 106.191 348.08C105.778 347.533 105.571 346.82 105.571 345.94C105.571 344.633 106.045 343.613 106.991 342.88C107.938 342.133 109.171 341.76 110.691 341.76C112.238 341.76 113.485 342.133 114.431 342.88C115.378 343.613 115.885 344.64 115.951 345.96H112.251C112.225 345.507 112.058 345.153 111.751 344.9C111.445 344.633 111.051 344.5 110.571 344.5C110.158 344.5 109.825 344.613 109.571 344.84C109.318 345.053 109.191 345.367 109.191 345.78C109.191 346.233 109.405 346.587 109.831 346.84C110.258 347.093 110.925 347.367 111.831 347.66C112.738 347.967 113.471 348.26 114.031 348.54C114.605 348.82 115.098 349.227 115.511 349.76C115.925 350.293 116.131 350.98 116.131 351.82C116.131 352.62 115.925 353.347 115.511 354C115.111 354.653 114.525 355.173 113.751 355.56C112.978 355.947 112.065 356.14 111.011 356.14ZM121.656 341.96V356H118.236V341.96H121.656ZM139.073 346.48C139.073 347.293 138.886 348.04 138.513 348.72C138.139 349.387 137.566 349.927 136.793 350.34C136.019 350.753 135.059 350.96 133.913 350.96H131.793V356H128.373V341.96H133.913C135.033 341.96 135.979 342.153 136.753 342.54C137.526 342.927 138.106 343.46 138.493 344.14C138.879 344.82 139.073 345.6 139.073 346.48ZM133.653 348.24C134.306 348.24 134.793 348.087 135.113 347.78C135.433 347.473 135.593 347.04 135.593 346.48C135.593 345.92 135.433 345.487 135.113 345.18C134.793 344.873 134.306 344.72 133.653 344.72H131.793V348.24H133.653ZM144.273 344.7V347.54H148.853V350.18H144.273V353.26H149.453V356H140.853V341.96H149.453V344.7H144.273ZM167.574 341.96V356H164.154V347.58L161.014 356H158.254L155.094 347.56V356H151.674V341.96H155.714L159.654 351.68L163.554 341.96H167.574ZM173.453 344.7V347.54H178.033V350.18H173.453V353.26H178.633V356H170.033V341.96H178.633V344.7H173.453ZM188.013 356L185.093 350.7H184.273V356H180.853V341.96H186.593C187.7 341.96 188.64 342.153 189.413 342.54C190.2 342.927 190.787 343.46 191.173 344.14C191.56 344.807 191.753 345.553 191.753 346.38C191.753 347.313 191.487 348.147 190.953 348.88C190.433 349.613 189.66 350.133 188.633 350.44L191.873 356H188.013ZM184.273 348.28H186.393C187.02 348.28 187.487 348.127 187.793 347.82C188.113 347.513 188.273 347.08 188.273 346.52C188.273 345.987 188.113 345.567 187.793 345.26C187.487 344.953 187.02 344.8 186.393 344.8H184.273V348.28ZM197.32 341.96V356H193.9V341.96H197.32ZM212.359 356H208.939L203.219 347.34V356H199.799V341.96H203.219L208.939 350.66V341.96H212.359V356ZM224.938 341.96V344.7H221.218V356H217.798V344.7H214.078V341.96H224.938ZM235.394 353.52H230.154L229.314 356H225.734L230.814 341.96H234.774L239.854 356H236.234L235.394 353.52ZM234.514 350.88L232.774 345.74L231.054 350.88H234.514ZM253.56 341.96V356H250.14V350.22H244.82V356H241.4V341.96H244.82V347.46H250.14V341.96H253.56ZM264.769 353.52H259.529L258.689 356H255.109L260.189 341.96H264.149L269.229 356H265.609L264.769 353.52ZM263.889 350.88L262.149 345.74L260.429 350.88H263.889ZM283.335 356H279.915L274.195 347.34V356H270.775V341.96H274.195L279.915 350.66V341.96H283.335V356Z" fill="#4E9882"/>
<path d="M145.14 371.96V386H141.72V377.58L138.58 386H135.82L132.66 377.56V386H129.24V371.96H133.28L137.22 381.68L141.12 371.96H145.14ZM158.619 374.84V386H155.199V384.48C154.853 384.973 154.379 385.373 153.779 385.68C153.193 385.973 152.539 386.12 151.819 386.12C150.966 386.12 150.213 385.933 149.559 385.56C148.906 385.173 148.399 384.62 148.039 383.9C147.679 383.18 147.499 382.333 147.499 381.36V374.84H150.899V380.9C150.899 381.647 151.093 382.227 151.479 382.64C151.866 383.053 152.386 383.26 153.039 383.26C153.706 383.26 154.233 383.053 154.619 382.64C155.006 382.227 155.199 381.647 155.199 380.9V374.84H158.619ZM165.616 386.16C164.643 386.16 163.776 385.993 163.016 385.66C162.256 385.327 161.656 384.873 161.216 384.3C160.776 383.713 160.529 383.06 160.476 382.34H163.856C163.896 382.727 164.076 383.04 164.396 383.28C164.716 383.52 165.109 383.64 165.576 383.64C166.003 383.64 166.329 383.56 166.556 383.4C166.796 383.227 166.916 383.007 166.916 382.74C166.916 382.42 166.749 382.187 166.416 382.04C166.083 381.88 165.543 381.707 164.796 381.52C163.996 381.333 163.329 381.14 162.796 380.94C162.263 380.727 161.803 380.4 161.416 379.96C161.029 379.507 160.836 378.9 160.836 378.14C160.836 377.5 161.009 376.92 161.356 376.4C161.716 375.867 162.236 375.447 162.916 375.14C163.609 374.833 164.429 374.68 165.376 374.68C166.776 374.68 167.876 375.027 168.676 375.72C169.489 376.413 169.956 377.333 170.076 378.48H166.916C166.863 378.093 166.689 377.787 166.396 377.56C166.116 377.333 165.743 377.22 165.276 377.22C164.876 377.22 164.569 377.3 164.356 377.46C164.143 377.607 164.036 377.813 164.036 378.08C164.036 378.4 164.203 378.64 164.536 378.8C164.883 378.96 165.416 379.12 166.136 379.28C166.963 379.493 167.636 379.707 168.156 379.92C168.676 380.12 169.129 380.453 169.516 380.92C169.916 381.373 170.123 381.987 170.136 382.76C170.136 383.413 169.949 384 169.576 384.52C169.216 385.027 168.689 385.427 167.996 385.72C167.316 386.013 166.523 386.16 165.616 386.16ZM178.448 383.1V386H176.708C175.468 386 174.502 385.7 173.808 385.1C173.115 384.487 172.768 383.493 172.768 382.12V377.68H171.408V374.84H172.768V372.12H176.188V374.84H178.428V377.68H176.188V382.16C176.188 382.493 176.268 382.733 176.428 382.88C176.588 383.027 176.855 383.1 177.228 383.1H178.448ZM179.673 380.4C179.673 379.253 179.887 378.247 180.313 377.38C180.753 376.513 181.347 375.847 182.093 375.38C182.84 374.913 183.673 374.68 184.593 374.68C185.38 374.68 186.067 374.84 186.653 375.16C187.253 375.48 187.713 375.9 188.033 376.42V374.84H191.453V386H188.033V384.42C187.7 384.94 187.233 385.36 186.633 385.68C186.047 386 185.36 386.16 184.573 386.16C183.667 386.16 182.84 385.927 182.093 385.46C181.347 384.98 180.753 384.307 180.313 383.44C179.887 382.56 179.673 381.547 179.673 380.4ZM188.033 380.42C188.033 379.567 187.793 378.893 187.313 378.4C186.847 377.907 186.273 377.66 185.593 377.66C184.913 377.66 184.333 377.907 183.853 378.4C183.387 378.88 183.153 379.547 183.153 380.4C183.153 381.253 183.387 381.933 183.853 382.44C184.333 382.933 184.913 383.18 185.593 383.18C186.273 383.18 186.847 382.933 187.313 382.44C187.793 381.947 188.033 381.273 188.033 380.42ZM200.748 386L197.348 381.32V386H193.928V371.2H197.348V379.38L200.728 374.84H204.948L200.308 380.44L204.988 386H200.748ZM208.011 373.68C207.411 373.68 206.917 373.507 206.531 373.16C206.157 372.8 205.971 372.36 205.971 371.84C205.971 371.307 206.157 370.867 206.531 370.52C206.917 370.16 207.411 369.98 208.011 369.98C208.597 369.98 209.077 370.16 209.451 370.52C209.837 370.867 210.031 371.307 210.031 371.84C210.031 372.36 209.837 372.8 209.451 373.16C209.077 373.507 208.597 373.68 208.011 373.68ZM209.711 374.84V386H206.291V374.84H209.711ZM226.429 374.72C227.816 374.72 228.916 375.14 229.729 375.98C230.556 376.82 230.969 377.987 230.969 379.48V386H227.569V379.94C227.569 379.22 227.376 378.667 226.989 378.28C226.616 377.88 226.096 377.68 225.429 377.68C224.763 377.68 224.236 377.88 223.849 378.28C223.476 378.667 223.289 379.22 223.289 379.94V386H219.889V379.94C219.889 379.22 219.696 378.667 219.309 378.28C218.936 377.88 218.416 377.68 217.749 377.68C217.083 377.68 216.556 377.88 216.169 378.28C215.796 378.667 215.609 379.22 215.609 379.94V386H212.189V374.84H215.609V376.24C215.956 375.773 216.409 375.407 216.969 375.14C217.529 374.86 218.163 374.72 218.869 374.72C219.709 374.72 220.456 374.9 221.109 375.26C221.776 375.62 222.296 376.133 222.669 376.8C223.056 376.187 223.583 375.687 224.249 375.3C224.916 374.913 225.643 374.72 226.429 374.72Z" fill="black"/>
<rect x="339" y="329" width="285" height="70" rx="35" fill="white"/>
<path d="M380.38 356L375.66 349.8V356H372.24V341.96H375.66V348.12L380.34 341.96H384.36L378.92 348.84L384.56 356H380.38ZM394.925 353.52H389.685L388.845 356H385.265L390.345 341.96H394.305L399.385 356H395.765L394.925 353.52ZM394.045 350.88L392.305 345.74L390.585 350.88H394.045ZM406.011 356.14C404.985 356.14 404.065 355.973 403.251 355.64C402.438 355.307 401.785 354.813 401.291 354.16C400.811 353.507 400.558 352.72 400.531 351.8H404.171C404.225 352.32 404.405 352.72 404.711 353C405.018 353.267 405.418 353.4 405.911 353.4C406.418 353.4 406.818 353.287 407.111 353.06C407.405 352.82 407.551 352.493 407.551 352.08C407.551 351.733 407.431 351.447 407.191 351.22C406.965 350.993 406.678 350.807 406.331 350.66C405.998 350.513 405.518 350.347 404.891 350.16C403.985 349.88 403.245 349.6 402.671 349.32C402.098 349.04 401.605 348.627 401.191 348.08C400.778 347.533 400.571 346.82 400.571 345.94C400.571 344.633 401.045 343.613 401.991 342.88C402.938 342.133 404.171 341.76 405.691 341.76C407.238 341.76 408.485 342.133 409.431 342.88C410.378 343.613 410.885 344.64 410.951 345.96H407.251C407.225 345.507 407.058 345.153 406.751 344.9C406.445 344.633 406.051 344.5 405.571 344.5C405.158 344.5 404.825 344.613 404.571 344.84C404.318 345.053 404.191 345.367 404.191 345.78C404.191 346.233 404.405 346.587 404.831 346.84C405.258 347.093 405.925 347.367 406.831 347.66C407.738 347.967 408.471 348.26 409.031 348.54C409.605 348.82 410.098 349.227 410.511 349.76C410.925 350.293 411.131 350.98 411.131 351.82C411.131 352.62 410.925 353.347 410.511 354C410.111 354.653 409.525 355.173 408.751 355.56C407.978 355.947 407.065 356.14 406.011 356.14ZM416.656 341.96V356H413.236V341.96H416.656ZM431.513 356L426.793 349.8V356H423.373V341.96H426.793V348.12L431.473 341.96H435.493L430.053 348.84L435.693 356H431.513ZM440.738 344.7V347.54H445.318V350.18H440.738V353.26H445.918V356H437.318V341.96H445.918V344.7H440.738ZM453.218 356.14C452.192 356.14 451.272 355.973 450.458 355.64C449.645 355.307 448.992 354.813 448.498 354.16C448.018 353.507 447.765 352.72 447.738 351.8H451.378C451.432 352.32 451.612 352.72 451.918 353C452.225 353.267 452.625 353.4 453.118 353.4C453.625 353.4 454.025 353.287 454.318 353.06C454.612 352.82 454.758 352.493 454.758 352.08C454.758 351.733 454.638 351.447 454.398 351.22C454.172 350.993 453.885 350.807 453.538 350.66C453.205 350.513 452.725 350.347 452.098 350.16C451.192 349.88 450.452 349.6 449.878 349.32C449.305 349.04 448.812 348.627 448.398 348.08C447.985 347.533 447.778 346.82 447.778 345.94C447.778 344.633 448.252 343.613 449.198 342.88C450.145 342.133 451.378 341.76 452.898 341.76C454.445 341.76 455.692 342.133 456.638 342.88C457.585 343.613 458.092 344.64 458.158 345.96H454.458C454.432 345.507 454.265 345.153 453.958 344.9C453.652 344.633 453.258 344.5 452.778 344.5C452.365 344.5 452.032 344.613 451.778 344.84C451.525 345.053 451.398 345.367 451.398 345.78C451.398 346.233 451.612 346.587 452.038 346.84C452.465 347.093 453.132 347.367 454.038 347.66C454.945 347.967 455.678 348.26 456.238 348.54C456.812 348.82 457.305 349.227 457.718 349.76C458.132 350.293 458.338 350.98 458.338 351.82C458.338 352.62 458.132 353.347 457.718 354C457.318 354.653 456.732 355.173 455.958 355.56C455.185 355.947 454.272 356.14 453.218 356.14ZM463.863 344.7V347.54H468.443V350.18H463.863V353.26H469.043V356H460.443V341.96H469.043V344.7H463.863ZM480.063 341.96V351.52C480.063 353 479.643 354.14 478.803 354.94C477.977 355.74 476.857 356.14 475.443 356.14C473.963 356.14 472.777 355.72 471.883 354.88C470.99 354.04 470.543 352.847 470.543 351.3H473.943C473.943 351.887 474.063 352.333 474.303 352.64C474.543 352.933 474.89 353.08 475.343 353.08C475.757 353.08 476.077 352.947 476.303 352.68C476.53 352.413 476.643 352.027 476.643 351.52V341.96H480.063ZM491.566 353.52H486.326L485.486 356H481.906L486.986 341.96H490.946L496.026 356H492.406L491.566 353.52ZM490.686 350.88L488.946 345.74L487.226 350.88H490.686ZM509.732 341.96V356H506.312V350.22H500.992V356H497.572V341.96H500.992V347.46H506.312V341.96H509.732ZM522.301 341.96V344.7H518.581V356H515.161V344.7H511.441V341.96H522.301ZM527.437 344.7V347.54H532.017V350.18H527.437V353.26H532.617V356H524.017V341.96H532.617V344.7H527.437ZM541.998 356L539.078 350.7H538.258V356H534.838V341.96H540.578C541.684 341.96 542.624 342.153 543.398 342.54C544.184 342.927 544.771 343.46 545.158 344.14C545.544 344.807 545.738 345.553 545.738 346.38C545.738 347.313 545.471 348.147 544.938 348.88C544.418 349.613 543.644 350.133 542.618 350.44L545.858 356H541.998ZM538.258 348.28H540.378C541.004 348.28 541.471 348.127 541.778 347.82C542.098 347.513 542.258 347.08 542.258 346.52C542.258 345.987 542.098 345.567 541.778 345.26C541.471 344.953 541.004 344.8 540.378 344.8H538.258V348.28ZM556.625 353.52H551.385L550.545 356H546.965L552.045 341.96H556.005L561.085 356H557.465L556.625 353.52ZM555.745 350.88L554.005 345.74L552.285 350.88H555.745ZM571.371 353.52H566.131L565.291 356H561.711L566.791 341.96H570.751L575.831 356H572.211L571.371 353.52ZM570.491 350.88L568.751 345.74L567.031 350.88H570.491ZM589.937 356H586.517L580.797 347.34V356H577.377V341.96H580.797L586.517 350.66V341.96H589.937V356Z" fill="#4E9882"/>
<path d="M485.34 377.56V380.4H476.54V377.56H485.34Z" fill="black"/>
<rect x="646" y="329" width="236" height="70" rx="35" fill="white"/>
<path d="M687.38 356L682.66 349.8V356H679.24V341.96H682.66V348.12L687.34 341.96H691.36L685.92 348.84L691.56 356H687.38ZM701.925 353.52H696.685L695.845 356H692.265L697.345 341.96H701.305L706.385 356H702.765L701.925 353.52ZM701.045 350.88L699.305 345.74L697.585 350.88H701.045ZM713.011 356.14C711.985 356.14 711.065 355.973 710.251 355.64C709.438 355.307 708.785 354.813 708.291 354.16C707.811 353.507 707.558 352.72 707.531 351.8H711.171C711.225 352.32 711.405 352.72 711.711 353C712.018 353.267 712.418 353.4 712.911 353.4C713.418 353.4 713.818 353.287 714.111 353.06C714.405 352.82 714.551 352.493 714.551 352.08C714.551 351.733 714.431 351.447 714.191 351.22C713.965 350.993 713.678 350.807 713.331 350.66C712.998 350.513 712.518 350.347 711.891 350.16C710.985 349.88 710.245 349.6 709.671 349.32C709.098 349.04 708.605 348.627 708.191 348.08C707.778 347.533 707.571 346.82 707.571 345.94C707.571 344.633 708.045 343.613 708.991 342.88C709.938 342.133 711.171 341.76 712.691 341.76C714.238 341.76 715.485 342.133 716.431 342.88C717.378 343.613 717.885 344.64 717.951 345.96H714.251C714.225 345.507 714.058 345.153 713.751 344.9C713.445 344.633 713.051 344.5 712.571 344.5C712.158 344.5 711.825 344.613 711.571 344.84C711.318 345.053 711.191 345.367 711.191 345.78C711.191 346.233 711.405 346.587 711.831 346.84C712.258 347.093 712.925 347.367 713.831 347.66C714.738 347.967 715.471 348.26 716.031 348.54C716.605 348.82 717.098 349.227 717.511 349.76C717.925 350.293 718.131 350.98 718.131 351.82C718.131 352.62 717.925 353.347 717.511 354C717.111 354.653 716.525 355.173 715.751 355.56C714.978 355.947 714.065 356.14 713.011 356.14ZM723.656 341.96V356H720.236V341.96H723.656ZM741.073 346.48C741.073 347.293 740.886 348.04 740.513 348.72C740.139 349.387 739.566 349.927 738.793 350.34C738.019 350.753 737.059 350.96 735.913 350.96H733.793V356H730.373V341.96H735.913C737.033 341.96 737.979 342.153 738.753 342.54C739.526 342.927 740.106 343.46 740.493 344.14C740.879 344.82 741.073 345.6 741.073 346.48ZM735.653 348.24C736.306 348.24 736.793 348.087 737.113 347.78C737.433 347.473 737.593 347.04 737.593 346.48C737.593 345.92 737.433 345.487 737.113 345.18C736.793 344.873 736.306 344.72 735.653 344.72H733.793V348.24H735.653ZM746.273 344.7V347.54H750.853V350.18H746.273V353.26H751.453V356H742.853V341.96H751.453V344.7H746.273ZM757.094 353.36H761.574V356H753.674V341.96H757.094V353.36ZM771.945 353.52H766.705L765.865 356H762.285L767.365 341.96H771.325L776.405 356H772.785L771.945 353.52ZM771.065 350.88L769.325 345.74L767.605 350.88H771.065ZM789.991 341.96L785.131 351.36V356H781.711V351.36L776.851 341.96H780.731L783.451 347.84L786.151 341.96H789.991ZM800.109 353.52H794.869L794.029 356H790.449L795.529 341.96H799.489L804.569 356H800.949L800.109 353.52ZM799.229 350.88L797.489 345.74L795.769 350.88H799.229ZM818.675 356H815.255L809.535 347.34V356H806.115V341.96H809.535L815.255 350.66V341.96H818.675V356ZM829.894 353.52H824.654L823.814 356H820.234L825.314 341.96H829.274L834.354 356H830.734L829.894 353.52ZM829.014 350.88L827.274 345.74L825.554 350.88H829.014ZM848.46 356H845.04L839.32 347.34V356H835.9V341.96H839.32L845.04 350.66V341.96H848.46V356Z" fill="#4E9882"/>
<path d="M767.84 377.56V380.4H759.04V377.56H767.84Z" fill="black"/>
<rect x="286" y="478" width="429" height="70" rx="35" fill="white"/>
<path d="M359.38 505L354.66 498.8V505H351.24V490.96H354.66V497.12L359.34 490.96H363.36L357.92 497.84L363.56 505H359.38ZM368.605 493.7V496.54H373.185V499.18H368.605V502.26H373.785V505H365.185V490.96H373.785V493.7H368.605ZM386.706 495.48C386.706 496.293 386.519 497.04 386.146 497.72C385.772 498.387 385.199 498.927 384.426 499.34C383.652 499.753 382.692 499.96 381.546 499.96H379.426V505H376.006V490.96H381.546C382.666 490.96 383.612 491.153 384.386 491.54C385.159 491.927 385.739 492.46 386.126 493.14C386.512 493.82 386.706 494.6 386.706 495.48ZM381.286 497.24C381.939 497.24 382.426 497.087 382.746 496.78C383.066 496.473 383.226 496.04 383.226 495.48C383.226 494.92 383.066 494.487 382.746 494.18C382.426 493.873 381.939 493.72 381.286 493.72H379.426V497.24H381.286ZM397.226 502.52H391.986L391.146 505H387.566L392.646 490.96H396.606L401.686 505H398.066L397.226 502.52ZM396.346 499.88L394.606 494.74L392.886 499.88H396.346ZM406.652 502.36H411.132V505H403.232V490.96H406.652V502.36ZM421.503 502.52H416.263L415.423 505H411.843L416.923 490.96H420.883L425.963 505H422.343L421.503 502.52ZM420.623 499.88L418.883 494.74L417.163 499.88H420.623ZM437.008 490.96C438.488 490.96 439.781 491.253 440.888 491.84C441.994 492.427 442.848 493.253 443.448 494.32C444.061 495.373 444.368 496.593 444.368 497.98C444.368 499.353 444.061 500.573 443.448 501.64C442.848 502.707 441.988 503.533 440.868 504.12C439.761 504.707 438.474 505 437.008 505H431.748V490.96H437.008ZM436.788 502.04C438.081 502.04 439.088 501.687 439.808 500.98C440.528 500.273 440.888 499.273 440.888 497.98C440.888 496.687 440.528 495.68 439.808 494.96C439.088 494.24 438.081 493.88 436.788 493.88H435.168V502.04H436.788ZM449.639 490.96V499.36C449.639 500.2 449.846 500.847 450.259 501.3C450.672 501.753 451.279 501.98 452.079 501.98C452.879 501.98 453.492 501.753 453.919 501.3C454.346 500.847 454.559 500.2 454.559 499.36V490.96H457.979V499.34C457.979 500.593 457.712 501.653 457.179 502.52C456.646 503.387 455.926 504.04 455.019 504.48C454.126 504.92 453.126 505.14 452.019 505.14C450.912 505.14 449.919 504.927 449.039 504.5C448.172 504.06 447.486 503.407 446.979 502.54C446.472 501.66 446.219 500.593 446.219 499.34V490.96H449.639ZM465.461 505.14C464.434 505.14 463.514 504.973 462.701 504.64C461.887 504.307 461.234 503.813 460.741 503.16C460.261 502.507 460.007 501.72 459.981 500.8H463.621C463.674 501.32 463.854 501.72 464.161 502C464.467 502.267 464.867 502.4 465.361 502.4C465.867 502.4 466.267 502.287 466.561 502.06C466.854 501.82 467.001 501.493 467.001 501.08C467.001 500.733 466.881 500.447 466.641 500.22C466.414 499.993 466.127 499.807 465.781 499.66C465.447 499.513 464.967 499.347 464.341 499.16C463.434 498.88 462.694 498.6 462.121 498.32C461.547 498.04 461.054 497.627 460.641 497.08C460.227 496.533 460.021 495.82 460.021 494.94C460.021 493.633 460.494 492.613 461.441 491.88C462.387 491.133 463.621 490.76 465.141 490.76C466.687 490.76 467.934 491.133 468.881 491.88C469.827 492.613 470.334 493.64 470.401 494.96H466.701C466.674 494.507 466.507 494.153 466.201 493.9C465.894 493.633 465.501 493.5 465.021 493.5C464.607 493.5 464.274 493.613 464.021 493.84C463.767 494.053 463.641 494.367 463.641 494.78C463.641 495.233 463.854 495.587 464.281 495.84C464.707 496.093 465.374 496.367 466.281 496.66C467.187 496.967 467.921 497.26 468.481 497.54C469.054 497.82 469.547 498.227 469.961 498.76C470.374 499.293 470.581 499.98 470.581 500.82C470.581 501.62 470.374 502.347 469.961 503C469.561 503.653 468.974 504.173 468.201 504.56C467.427 504.947 466.514 505.14 465.461 505.14ZM476.045 490.96V499.36C476.045 500.2 476.252 500.847 476.665 501.3C477.079 501.753 477.685 501.98 478.485 501.98C479.285 501.98 479.899 501.753 480.325 501.3C480.752 500.847 480.965 500.2 480.965 499.36V490.96H484.385V499.34C484.385 500.593 484.119 501.653 483.585 502.52C483.052 503.387 482.332 504.04 481.425 504.48C480.532 504.92 479.532 505.14 478.425 505.14C477.319 505.14 476.325 504.927 475.445 504.5C474.579 504.06 473.892 503.407 473.385 502.54C472.879 501.66 472.625 500.593 472.625 499.34V490.96H476.045ZM499.347 505H495.927L490.207 496.34V505H486.787V490.96H490.207L495.927 499.66V490.96H499.347V505ZM514.204 505L509.484 498.8V505H506.064V490.96H509.484V497.12L514.164 490.96H518.184L512.744 497.84L518.384 505H514.204ZM528.75 502.52H523.51L522.67 505H519.09L524.17 490.96H528.13L533.21 505H529.59L528.75 502.52ZM527.87 499.88L526.13 494.74L524.41 499.88H527.87ZM541.916 505L538.996 499.7H538.176V505H534.756V490.96H540.496C541.602 490.96 542.542 491.153 543.316 491.54C544.102 491.927 544.689 492.46 545.076 493.14C545.462 493.807 545.656 494.553 545.656 495.38C545.656 496.313 545.389 497.147 544.856 497.88C544.336 498.613 543.562 499.133 542.536 499.44L545.776 505H541.916ZM538.176 497.28H540.296C540.922 497.28 541.389 497.127 541.696 496.82C542.016 496.513 542.176 496.08 542.176 495.52C542.176 494.987 542.016 494.567 541.696 494.26C541.389 493.953 540.922 493.8 540.296 493.8H538.176V497.28ZM556.543 502.52H551.303L550.463 505H546.883L551.963 490.96H555.923L561.003 505H557.383L556.543 502.52ZM555.663 499.88L553.923 494.74L552.203 499.88H555.663ZM575.109 505H571.689L565.969 496.34V505H562.549V490.96H565.969L571.689 499.66V490.96H575.109V505ZM586.908 495.4C586.654 494.933 586.288 494.58 585.808 494.34C585.341 494.087 584.788 493.96 584.148 493.96C583.041 493.96 582.154 494.327 581.488 495.06C580.821 495.78 580.488 496.747 580.488 497.96C580.488 499.253 580.834 500.267 581.528 501C582.234 501.72 583.201 502.08 584.428 502.08C585.268 502.08 585.974 501.867 586.548 501.44C587.134 501.013 587.561 500.4 587.828 499.6H583.488V497.08H590.928V500.26C590.674 501.113 590.241 501.907 589.628 502.64C589.028 503.373 588.261 503.967 587.328 504.42C586.394 504.873 585.341 505.1 584.168 505.1C582.781 505.1 581.541 504.8 580.448 504.2C579.368 503.587 578.521 502.74 577.908 501.66C577.308 500.58 577.008 499.347 577.008 497.96C577.008 496.573 577.308 495.34 577.908 494.26C578.521 493.167 579.368 492.32 580.448 491.72C581.528 491.107 582.761 490.8 584.148 490.8C585.828 490.8 587.241 491.207 588.388 492.02C589.548 492.833 590.314 493.96 590.688 495.4H586.908ZM598.082 490.96C599.562 490.96 600.855 491.253 601.962 491.84C603.069 492.427 603.922 493.253 604.522 494.32C605.135 495.373 605.442 496.593 605.442 497.98C605.442 499.353 605.135 500.573 604.522 501.64C603.922 502.707 603.062 503.533 601.942 504.12C600.835 504.707 599.549 505 598.082 505H592.822V490.96H598.082ZM597.862 502.04C599.155 502.04 600.162 501.687 600.882 500.98C601.602 500.273 601.962 499.273 601.962 497.98C601.962 496.687 601.602 495.68 600.882 494.96C600.162 494.24 599.155 493.88 597.862 493.88H596.242V502.04H597.862ZM613.993 505.14C612.673 505.14 611.46 504.833 610.353 504.22C609.26 503.607 608.387 502.753 607.733 501.66C607.093 500.553 606.773 499.313 606.773 497.94C606.773 496.567 607.093 495.333 607.733 494.24C608.387 493.147 609.26 492.293 610.353 491.68C611.46 491.067 612.673 490.76 613.993 490.76C615.313 490.76 616.52 491.067 617.613 491.68C618.72 492.293 619.587 493.147 620.213 494.24C620.853 495.333 621.173 496.567 621.173 497.94C621.173 499.313 620.853 500.553 620.213 501.66C619.573 502.753 618.707 503.607 617.613 504.22C616.52 504.833 615.313 505.14 613.993 505.14ZM613.993 502.02C615.113 502.02 616.007 501.647 616.673 500.9C617.353 500.153 617.693 499.167 617.693 497.94C617.693 496.7 617.353 495.713 616.673 494.98C616.007 494.233 615.113 493.86 613.993 493.86C612.86 493.86 611.953 494.227 611.273 494.96C610.607 495.693 610.273 496.687 610.273 497.94C610.273 499.18 610.607 500.173 611.273 500.92C611.953 501.653 612.86 502.02 613.993 502.02ZM630.236 505L627.316 499.7H626.496V505H623.076V490.96H628.816C629.923 490.96 630.863 491.153 631.636 491.54C632.423 491.927 633.009 492.46 633.396 493.14C633.783 493.807 633.976 494.553 633.976 495.38C633.976 496.313 633.709 497.147 633.176 497.88C632.656 498.613 631.883 499.133 630.856 499.44L634.096 505H630.236ZM626.496 497.28H628.616C629.243 497.28 629.709 497.127 630.016 496.82C630.336 496.513 630.496 496.08 630.496 495.52C630.496 494.987 630.336 494.567 630.016 494.26C629.709 493.953 629.243 493.8 628.616 493.8H626.496V497.28ZM642.763 505.14C641.443 505.14 640.229 504.833 639.123 504.22C638.029 503.607 637.156 502.753 636.503 501.66C635.863 500.553 635.543 499.313 635.543 497.94C635.543 496.567 635.863 495.333 636.503 494.24C637.156 493.147 638.029 492.293 639.123 491.68C640.229 491.067 641.443 490.76 642.763 490.76C644.083 490.76 645.289 491.067 646.383 491.68C647.489 492.293 648.356 493.147 648.983 494.24C649.623 495.333 649.943 496.567 649.943 497.94C649.943 499.313 649.623 500.553 648.983 501.66C648.343 502.753 647.476 503.607 646.383 504.22C645.289 504.833 644.083 505.14 642.763 505.14ZM642.763 502.02C643.883 502.02 644.776 501.647 645.443 500.9C646.123 500.153 646.463 499.167 646.463 497.94C646.463 496.7 646.123 495.713 645.443 494.98C644.776 494.233 643.883 493.86 642.763 493.86C641.629 493.86 640.723 494.227 640.043 494.96C639.376 495.693 639.043 496.687 639.043 497.94C639.043 499.18 639.376 500.173 640.043 500.92C640.723 501.653 641.629 502.02 642.763 502.02Z" fill="#4E9882"/>
<path d="M464.82 535.14C463.793 535.14 462.873 534.973 462.06 534.64C461.247 534.307 460.593 533.813 460.1 533.16C459.62 532.507 459.367 531.72 459.34 530.8H462.98C463.033 531.32 463.213 531.72 463.52 532C463.827 532.267 464.227 532.4 464.72 532.4C465.227 532.4 465.627 532.287 465.92 532.06C466.213 531.82 466.36 531.493 466.36 531.08C466.36 530.733 466.24 530.447 466 530.22C465.773 529.993 465.487 529.807 465.14 529.66C464.807 529.513 464.327 529.347 463.7 529.16C462.793 528.88 462.053 528.6 461.48 528.32C460.907 528.04 460.413 527.627 460 527.08C459.587 526.533 459.38 525.82 459.38 524.94C459.38 523.633 459.853 522.613 460.8 521.88C461.747 521.133 462.98 520.76 464.5 520.76C466.047 520.76 467.293 521.133 468.24 521.88C469.187 522.613 469.693 523.64 469.76 524.96H466.06C466.033 524.507 465.867 524.153 465.56 523.9C465.253 523.633 464.86 523.5 464.38 523.5C463.967 523.5 463.633 523.613 463.38 523.84C463.127 524.053 463 524.367 463 524.78C463 525.233 463.213 525.587 463.64 525.84C464.067 526.093 464.733 526.367 465.64 526.66C466.547 526.967 467.28 527.26 467.84 527.54C468.413 527.82 468.907 528.227 469.32 528.76C469.733 529.293 469.94 529.98 469.94 530.82C469.94 531.62 469.733 532.347 469.32 533C468.92 533.653 468.333 534.173 467.56 534.56C466.787 534.947 465.873 535.14 464.82 535.14ZM483.065 523.84V535H479.645V533.48C479.298 533.973 478.825 534.373 478.225 534.68C477.638 534.973 476.985 535.12 476.265 535.12C475.411 535.12 474.658 534.933 474.005 534.56C473.351 534.173 472.845 533.62 472.485 532.9C472.125 532.18 471.945 531.333 471.945 530.36V523.84H475.345V529.9C475.345 530.647 475.538 531.227 475.925 531.64C476.311 532.053 476.831 532.26 477.485 532.26C478.151 532.26 478.678 532.053 479.065 531.64C479.451 531.227 479.645 530.647 479.645 529.9V523.84H483.065ZM492.341 535L488.941 530.32V535H485.521V520.2H488.941V528.38L492.321 523.84H496.541L491.901 529.44L496.581 535H492.341ZM508.405 529.24C508.405 529.56 508.385 529.893 508.345 530.24H500.605C500.658 530.933 500.878 531.467 501.265 531.84C501.665 532.2 502.151 532.38 502.725 532.38C503.578 532.38 504.171 532.02 504.505 531.3H508.145C507.958 532.033 507.618 532.693 507.125 533.28C506.645 533.867 506.038 534.327 505.305 534.66C504.571 534.993 503.751 535.16 502.845 535.16C501.751 535.16 500.778 534.927 499.925 534.46C499.071 533.993 498.405 533.327 497.925 532.46C497.445 531.593 497.205 530.58 497.205 529.42C497.205 528.26 497.438 527.247 497.905 526.38C498.385 525.513 499.051 524.847 499.905 524.38C500.758 523.913 501.738 523.68 502.845 523.68C503.925 523.68 504.885 523.907 505.725 524.36C506.565 524.813 507.218 525.46 507.685 526.3C508.165 527.14 508.405 528.12 508.405 529.24ZM504.905 528.34C504.905 527.753 504.705 527.287 504.305 526.94C503.905 526.593 503.405 526.42 502.805 526.42C502.231 526.42 501.745 526.587 501.345 526.92C500.958 527.253 500.718 527.727 500.625 528.34H504.905ZM517.009 523.72C518.315 523.72 519.355 524.147 520.129 525C520.915 525.84 521.309 527 521.309 528.48V535H517.909V528.94C517.909 528.193 517.715 527.613 517.329 527.2C516.942 526.787 516.422 526.58 515.769 526.58C515.115 526.58 514.595 526.787 514.209 527.2C513.822 527.613 513.629 528.193 513.629 528.94V535H510.209V523.84H513.629V525.32C513.975 524.827 514.442 524.44 515.029 524.16C515.615 523.867 516.275 523.72 517.009 523.72ZM523.005 529.4C523.005 528.253 523.219 527.247 523.645 526.38C524.085 525.513 524.679 524.847 525.425 524.38C526.172 523.913 527.005 523.68 527.925 523.68C528.659 523.68 529.325 523.833 529.925 524.14C530.539 524.447 531.019 524.86 531.365 525.38V520.2H534.785V535H531.365V533.4C531.045 533.933 530.585 534.36 529.985 534.68C529.399 535 528.712 535.16 527.925 535.16C527.005 535.16 526.172 534.927 525.425 534.46C524.679 533.98 524.085 533.307 523.645 532.44C523.219 531.56 523.005 530.547 523.005 529.4ZM531.365 529.42C531.365 528.567 531.125 527.893 530.645 527.4C530.179 526.907 529.605 526.66 528.925 526.66C528.245 526.66 527.665 526.907 527.185 527.4C526.719 527.88 526.485 528.547 526.485 529.4C526.485 530.253 526.719 530.933 527.185 531.44C527.665 531.933 528.245 532.18 528.925 532.18C529.605 532.18 530.179 531.933 530.645 531.44C531.125 530.947 531.365 530.273 531.365 529.42ZM538.98 522.68C538.38 522.68 537.886 522.507 537.5 522.16C537.126 521.8 536.94 521.36 536.94 520.84C536.94 520.307 537.126 519.867 537.5 519.52C537.886 519.16 538.38 518.98 538.98 518.98C539.566 518.98 540.046 519.16 540.42 519.52C540.806 519.867 541 520.307 541 520.84C541 521.36 540.806 521.8 540.42 522.16C540.046 522.507 539.566 522.68 538.98 522.68ZM540.68 523.84V535H537.26V523.84H540.68Z" fill="black"/>
<rect x="745" y="478" width="405" height="70" rx="35" fill="white"/>
<path d="M818.38 505L813.66 498.8V505H810.24V490.96H813.66V497.12L818.34 490.96H822.36L816.92 497.84L822.56 505H818.38ZM827.605 493.7V496.54H832.185V499.18H827.605V502.26H832.785V505H824.185V490.96H832.785V493.7H827.605ZM845.706 495.48C845.706 496.293 845.519 497.04 845.146 497.72C844.772 498.387 844.199 498.927 843.426 499.34C842.652 499.753 841.692 499.96 840.546 499.96H838.426V505H835.006V490.96H840.546C841.666 490.96 842.612 491.153 843.386 491.54C844.159 491.927 844.739 492.46 845.126 493.14C845.512 493.82 845.706 494.6 845.706 495.48ZM840.286 497.24C840.939 497.24 841.426 497.087 841.746 496.78C842.066 496.473 842.226 496.04 842.226 495.48C842.226 494.92 842.066 494.487 841.746 494.18C841.426 493.873 840.939 493.72 840.286 493.72H838.426V497.24H840.286ZM856.226 502.52H850.986L850.146 505H846.566L851.646 490.96H855.606L860.686 505H857.066L856.226 502.52ZM855.346 499.88L853.606 494.74L851.886 499.88H855.346ZM865.652 502.36H870.132V505H862.232V490.96H865.652V502.36ZM880.503 502.52H875.263L874.423 505H870.843L875.923 490.96H879.883L884.963 505H881.343L880.503 502.52ZM879.623 499.88L877.883 494.74L876.163 499.88H879.623ZM896.008 490.96C897.488 490.96 898.781 491.253 899.888 491.84C900.994 492.427 901.848 493.253 902.448 494.32C903.061 495.373 903.368 496.593 903.368 497.98C903.368 499.353 903.061 500.573 902.448 501.64C901.848 502.707 900.988 503.533 899.868 504.12C898.761 504.707 897.474 505 896.008 505H890.748V490.96H896.008ZM895.788 502.04C897.081 502.04 898.088 501.687 898.808 500.98C899.528 500.273 899.888 499.273 899.888 497.98C899.888 496.687 899.528 495.68 898.808 494.96C898.088 494.24 897.081 493.88 895.788 493.88H894.168V502.04H895.788ZM908.639 490.96V499.36C908.639 500.2 908.846 500.847 909.259 501.3C909.672 501.753 910.279 501.98 911.079 501.98C911.879 501.98 912.492 501.753 912.919 501.3C913.346 500.847 913.559 500.2 913.559 499.36V490.96H916.979V499.34C916.979 500.593 916.712 501.653 916.179 502.52C915.646 503.387 914.926 504.04 914.019 504.48C913.126 504.92 912.126 505.14 911.019 505.14C909.912 505.14 908.919 504.927 908.039 504.5C907.172 504.06 906.486 503.407 905.979 502.54C905.472 501.66 905.219 500.593 905.219 499.34V490.96H908.639ZM924.461 505.14C923.434 505.14 922.514 504.973 921.701 504.64C920.887 504.307 920.234 503.813 919.741 503.16C919.261 502.507 919.007 501.72 918.981 500.8H922.621C922.674 501.32 922.854 501.72 923.161 502C923.467 502.267 923.867 502.4 924.361 502.4C924.867 502.4 925.267 502.287 925.561 502.06C925.854 501.82 926.001 501.493 926.001 501.08C926.001 500.733 925.881 500.447 925.641 500.22C925.414 499.993 925.127 499.807 924.781 499.66C924.447 499.513 923.967 499.347 923.341 499.16C922.434 498.88 921.694 498.6 921.121 498.32C920.547 498.04 920.054 497.627 919.641 497.08C919.227 496.533 919.021 495.82 919.021 494.94C919.021 493.633 919.494 492.613 920.441 491.88C921.387 491.133 922.621 490.76 924.141 490.76C925.687 490.76 926.934 491.133 927.881 491.88C928.827 492.613 929.334 493.64 929.401 494.96H925.701C925.674 494.507 925.507 494.153 925.201 493.9C924.894 493.633 924.501 493.5 924.021 493.5C923.607 493.5 923.274 493.613 923.021 493.84C922.767 494.053 922.641 494.367 922.641 494.78C922.641 495.233 922.854 495.587 923.281 495.84C923.707 496.093 924.374 496.367 925.281 496.66C926.187 496.967 926.921 497.26 927.481 497.54C928.054 497.82 928.547 498.227 928.961 498.76C929.374 499.293 929.581 499.98 929.581 500.82C929.581 501.62 929.374 502.347 928.961 503C928.561 503.653 927.974 504.173 927.201 504.56C926.427 504.947 925.514 505.14 924.461 505.14ZM935.045 490.96V499.36C935.045 500.2 935.252 500.847 935.665 501.3C936.079 501.753 936.685 501.98 937.485 501.98C938.285 501.98 938.899 501.753 939.325 501.3C939.752 500.847 939.965 500.2 939.965 499.36V490.96H943.385V499.34C943.385 500.593 943.119 501.653 942.585 502.52C942.052 503.387 941.332 504.04 940.425 504.48C939.532 504.92 938.532 505.14 937.425 505.14C936.319 505.14 935.325 504.927 934.445 504.5C933.579 504.06 932.892 503.407 932.385 502.54C931.879 501.66 931.625 500.593 931.625 499.34V490.96H935.045ZM958.347 505H954.927L949.207 496.34V505H945.787V490.96H949.207L954.927 499.66V490.96H958.347V505ZM975.764 495.48C975.764 496.293 975.578 497.04 975.204 497.72C974.831 498.387 974.258 498.927 973.484 499.34C972.711 499.753 971.751 499.96 970.604 499.96H968.484V505H965.064V490.96H970.604C971.724 490.96 972.671 491.153 973.444 491.54C974.218 491.927 974.798 492.46 975.184 493.14C975.571 493.82 975.764 494.6 975.764 495.48ZM970.344 497.24C970.998 497.24 971.484 497.087 971.804 496.78C972.124 496.473 972.284 496.04 972.284 495.48C972.284 494.92 972.124 494.487 971.804 494.18C971.484 493.873 970.998 493.72 970.344 493.72H968.484V497.24H970.344ZM986.285 502.52H981.045L980.205 505H976.625L981.705 490.96H985.665L990.745 505H987.125L986.285 502.52ZM985.405 499.88L983.665 494.74L981.945 499.88H985.405ZM1008.19 490.96V505H1004.77V496.58L1001.63 505H998.871L995.711 496.56V505H992.291V490.96H996.331L1000.27 500.68L1004.17 490.96H1008.19ZM1017.29 505.14C1015.97 505.14 1014.76 504.833 1013.65 504.22C1012.56 503.607 1011.68 502.753 1011.03 501.66C1010.39 500.553 1010.07 499.313 1010.07 497.94C1010.07 496.567 1010.39 495.333 1011.03 494.24C1011.68 493.147 1012.56 492.293 1013.65 491.68C1014.76 491.067 1015.97 490.76 1017.29 490.76C1018.61 490.76 1019.82 491.067 1020.91 491.68C1022.02 492.293 1022.88 493.147 1023.51 494.24C1024.15 495.333 1024.47 496.567 1024.47 497.94C1024.47 499.313 1024.15 500.553 1023.51 501.66C1022.87 502.753 1022 503.607 1020.91 504.22C1019.82 504.833 1018.61 505.14 1017.29 505.14ZM1017.29 502.02C1018.41 502.02 1019.3 501.647 1019.97 500.9C1020.65 500.153 1020.99 499.167 1020.99 497.94C1020.99 496.7 1020.65 495.713 1019.97 494.98C1019.3 494.233 1018.41 493.86 1017.29 493.86C1016.16 493.86 1015.25 494.227 1014.57 494.96C1013.9 495.693 1013.57 496.687 1013.57 497.94C1013.57 499.18 1013.9 500.173 1014.57 500.92C1015.25 501.653 1016.16 502.02 1017.29 502.02ZM1038.93 505H1035.51L1029.79 496.34V505H1026.37V490.96H1029.79L1035.51 499.66V490.96H1038.93V505ZM1050.73 495.4C1050.48 494.933 1050.11 494.58 1049.63 494.34C1049.17 494.087 1048.61 493.96 1047.97 493.96C1046.87 493.96 1045.98 494.327 1045.31 495.06C1044.65 495.78 1044.31 496.747 1044.31 497.96C1044.31 499.253 1044.66 500.267 1045.35 501C1046.06 501.72 1047.03 502.08 1048.25 502.08C1049.09 502.08 1049.8 501.867 1050.37 501.44C1050.96 501.013 1051.39 500.4 1051.65 499.6H1047.31V497.08H1054.75V500.26C1054.5 501.113 1054.07 501.907 1053.45 502.64C1052.85 503.373 1052.09 503.967 1051.15 504.42C1050.22 504.873 1049.17 505.1 1047.99 505.1C1046.61 505.1 1045.37 504.8 1044.27 504.2C1043.19 503.587 1042.35 502.74 1041.73 501.66C1041.13 500.58 1040.83 499.347 1040.83 497.96C1040.83 496.573 1041.13 495.34 1041.73 494.26C1042.35 493.167 1043.19 492.32 1044.27 491.72C1045.35 491.107 1046.59 490.8 1047.97 490.8C1049.65 490.8 1051.07 491.207 1052.21 492.02C1053.37 492.833 1054.14 493.96 1054.51 495.4H1050.73ZM1065.39 502.52H1060.15L1059.31 505H1055.73L1060.81 490.96H1064.77L1069.85 505H1066.23L1065.39 502.52ZM1064.51 499.88L1062.77 494.74L1061.05 499.88H1064.51ZM1083.95 505H1080.53L1074.81 496.34V505H1071.39V490.96H1074.81L1080.53 499.66V490.96H1083.95V505Z" fill="#4E9882"/>
<path d="M912.3 535H908.88L903.16 526.34V535H899.74V520.96H903.16L908.88 529.66V520.96H912.3V535ZM925.799 523.84V535H922.379V533.48C922.032 533.973 921.559 534.373 920.959 534.68C920.372 534.973 919.719 535.12 918.999 535.12C918.146 535.12 917.392 534.933 916.739 534.56C916.086 534.173 915.579 533.62 915.219 532.9C914.859 532.18 914.679 531.333 914.679 530.36V523.84H918.079V529.9C918.079 530.647 918.272 531.227 918.659 531.64C919.046 532.053 919.566 532.26 920.219 532.26C920.886 532.26 921.412 532.053 921.799 531.64C922.186 531.227 922.379 530.647 922.379 529.9V523.84H925.799ZM931.676 525.7C932.076 525.087 932.576 524.607 933.176 524.26C933.776 523.9 934.442 523.72 935.176 523.72V527.34H934.236C933.382 527.34 932.742 527.527 932.316 527.9C931.889 528.26 931.676 528.9 931.676 529.82V535H928.256V523.84H931.676V525.7ZM948.21 523.84L941.21 540.3H937.53L940.09 534.62L935.55 523.84H939.37L941.95 530.82L944.51 523.84H948.21ZM948.767 529.4C948.767 528.253 948.98 527.247 949.407 526.38C949.847 525.513 950.44 524.847 951.187 524.38C951.934 523.913 952.767 523.68 953.687 523.68C954.474 523.68 955.16 523.84 955.747 524.16C956.347 524.48 956.807 524.9 957.127 525.42V523.84H960.547V535H957.127V533.42C956.794 533.94 956.327 534.36 955.727 534.68C955.14 535 954.454 535.16 953.667 535.16C952.76 535.16 951.934 534.927 951.187 534.46C950.44 533.98 949.847 533.307 949.407 532.44C948.98 531.56 948.767 530.547 948.767 529.4ZM957.127 529.42C957.127 528.567 956.887 527.893 956.407 527.4C955.94 526.907 955.367 526.66 954.687 526.66C954.007 526.66 953.427 526.907 952.947 527.4C952.48 527.88 952.247 528.547 952.247 529.4C952.247 530.253 952.48 530.933 952.947 531.44C953.427 531.933 954.007 532.18 954.687 532.18C955.367 532.18 955.94 531.933 956.407 531.44C956.887 530.947 957.127 530.273 957.127 529.42ZM969.821 523.72C971.128 523.72 972.168 524.147 972.941 525C973.728 525.84 974.121 527 974.121 528.48V535H970.721V528.94C970.721 528.193 970.528 527.613 970.141 527.2C969.755 526.787 969.235 526.58 968.581 526.58C967.928 526.58 967.408 526.787 967.021 527.2C966.635 527.613 966.441 528.193 966.441 528.94V535H963.021V523.84H966.441V525.32C966.788 524.827 967.255 524.44 967.841 524.16C968.428 523.867 969.088 523.72 969.821 523.72ZM982.718 532.1V535H980.978C979.738 535 978.771 534.7 978.078 534.1C977.384 533.487 977.038 532.493 977.038 531.12V526.68H975.678V523.84H977.038V521.12H980.458V523.84H982.698V526.68H980.458V531.16C980.458 531.493 980.538 531.733 980.698 531.88C980.858 532.027 981.124 532.1 981.498 532.1H982.718ZM989.703 535.16C988.609 535.16 987.623 534.927 986.743 534.46C985.876 533.993 985.189 533.327 984.683 532.46C984.189 531.593 983.943 530.58 983.943 529.42C983.943 528.273 984.196 527.267 984.703 526.4C985.209 525.52 985.903 524.847 986.783 524.38C987.663 523.913 988.649 523.68 989.743 523.68C990.836 523.68 991.823 523.913 992.703 524.38C993.583 524.847 994.276 525.52 994.783 526.4C995.289 527.267 995.543 528.273 995.543 529.42C995.543 530.567 995.283 531.58 994.763 532.46C994.256 533.327 993.556 533.993 992.663 534.46C991.783 534.927 990.796 535.16 989.703 535.16ZM989.703 532.2C990.356 532.2 990.909 531.96 991.363 531.48C991.829 531 992.063 530.313 992.063 529.42C992.063 528.527 991.836 527.84 991.383 527.36C990.943 526.88 990.396 526.64 989.743 526.64C989.076 526.64 988.523 526.88 988.083 527.36C987.643 527.827 987.423 528.513 987.423 529.42C987.423 530.313 987.636 531 988.063 531.48C988.503 531.96 989.049 532.2 989.703 532.2Z" fill="black"/>
<rect x="1181" y="478" width="347" height="70" rx="35" fill="white"/>
<path d="M1254.38 505L1249.66 498.8V505H1246.24V490.96H1249.66V497.12L1254.34 490.96H1258.36L1252.92 497.84L1258.56 505H1254.38ZM1263.61 493.7V496.54H1268.19V499.18H1263.61V502.26H1268.79V505H1260.19V490.96H1268.79V493.7H1263.61ZM1281.71 495.48C1281.71 496.293 1281.52 497.04 1281.15 497.72C1280.77 498.387 1280.2 498.927 1279.43 499.34C1278.65 499.753 1277.69 499.96 1276.55 499.96H1274.43V505H1271.01V490.96H1276.55C1277.67 490.96 1278.61 491.153 1279.39 491.54C1280.16 491.927 1280.74 492.46 1281.13 493.14C1281.51 493.82 1281.71 494.6 1281.71 495.48ZM1276.29 497.24C1276.94 497.24 1277.43 497.087 1277.75 496.78C1278.07 496.473 1278.23 496.04 1278.23 495.48C1278.23 494.92 1278.07 494.487 1277.75 494.18C1277.43 493.873 1276.94 493.72 1276.29 493.72H1274.43V497.24H1276.29ZM1292.23 502.52H1286.99L1286.15 505H1282.57L1287.65 490.96H1291.61L1296.69 505H1293.07L1292.23 502.52ZM1291.35 499.88L1289.61 494.74L1287.89 499.88H1291.35ZM1301.65 502.36H1306.13V505H1298.23V490.96H1301.65V502.36ZM1316.5 502.52H1311.26L1310.42 505H1306.84L1311.92 490.96H1315.88L1320.96 505H1317.34L1316.5 502.52ZM1315.62 499.88L1313.88 494.74L1312.16 499.88H1315.62ZM1332.01 490.96C1333.49 490.96 1334.78 491.253 1335.89 491.84C1336.99 492.427 1337.85 493.253 1338.45 494.32C1339.06 495.373 1339.37 496.593 1339.37 497.98C1339.37 499.353 1339.06 500.573 1338.45 501.64C1337.85 502.707 1336.99 503.533 1335.87 504.12C1334.76 504.707 1333.47 505 1332.01 505H1326.75V490.96H1332.01ZM1331.79 502.04C1333.08 502.04 1334.09 501.687 1334.81 500.98C1335.53 500.273 1335.89 499.273 1335.89 497.98C1335.89 496.687 1335.53 495.68 1334.81 494.96C1334.09 494.24 1333.08 493.88 1331.79 493.88H1330.17V502.04H1331.79ZM1344.64 490.96V499.36C1344.64 500.2 1344.85 500.847 1345.26 501.3C1345.67 501.753 1346.28 501.98 1347.08 501.98C1347.88 501.98 1348.49 501.753 1348.92 501.3C1349.35 500.847 1349.56 500.2 1349.56 499.36V490.96H1352.98V499.34C1352.98 500.593 1352.71 501.653 1352.18 502.52C1351.65 503.387 1350.93 504.04 1350.02 504.48C1349.13 504.92 1348.13 505.14 1347.02 505.14C1345.91 505.14 1344.92 504.927 1344.04 504.5C1343.17 504.06 1342.49 503.407 1341.98 502.54C1341.47 501.66 1341.22 500.593 1341.22 499.34V490.96H1344.64ZM1360.46 505.14C1359.43 505.14 1358.51 504.973 1357.7 504.64C1356.89 504.307 1356.23 503.813 1355.74 503.16C1355.26 502.507 1355.01 501.72 1354.98 500.8H1358.62C1358.67 501.32 1358.85 501.72 1359.16 502C1359.47 502.267 1359.87 502.4 1360.36 502.4C1360.87 502.4 1361.27 502.287 1361.56 502.06C1361.85 501.82 1362 501.493 1362 501.08C1362 500.733 1361.88 500.447 1361.64 500.22C1361.41 499.993 1361.13 499.807 1360.78 499.66C1360.45 499.513 1359.97 499.347 1359.34 499.16C1358.43 498.88 1357.69 498.6 1357.12 498.32C1356.55 498.04 1356.05 497.627 1355.64 497.08C1355.23 496.533 1355.02 495.82 1355.02 494.94C1355.02 493.633 1355.49 492.613 1356.44 491.88C1357.39 491.133 1358.62 490.76 1360.14 490.76C1361.69 490.76 1362.93 491.133 1363.88 491.88C1364.83 492.613 1365.33 493.64 1365.4 494.96H1361.7C1361.67 494.507 1361.51 494.153 1361.2 493.9C1360.89 493.633 1360.5 493.5 1360.02 493.5C1359.61 493.5 1359.27 493.613 1359.02 493.84C1358.77 494.053 1358.64 494.367 1358.64 494.78C1358.64 495.233 1358.85 495.587 1359.28 495.84C1359.71 496.093 1360.37 496.367 1361.28 496.66C1362.19 496.967 1362.92 497.26 1363.48 497.54C1364.05 497.82 1364.55 498.227 1364.96 498.76C1365.37 499.293 1365.58 499.98 1365.58 500.82C1365.58 501.62 1365.37 502.347 1364.96 503C1364.56 503.653 1363.97 504.173 1363.2 504.56C1362.43 504.947 1361.51 505.14 1360.46 505.14ZM1371.05 490.96V499.36C1371.05 500.2 1371.25 500.847 1371.67 501.3C1372.08 501.753 1372.69 501.98 1373.49 501.98C1374.29 501.98 1374.9 501.753 1375.33 501.3C1375.75 500.847 1375.97 500.2 1375.97 499.36V490.96H1379.39V499.34C1379.39 500.593 1379.12 501.653 1378.59 502.52C1378.05 503.387 1377.33 504.04 1376.43 504.48C1375.53 504.92 1374.53 505.14 1373.43 505.14C1372.32 505.14 1371.33 504.927 1370.45 504.5C1369.58 504.06 1368.89 503.407 1368.39 502.54C1367.88 501.66 1367.63 500.593 1367.63 499.34V490.96H1371.05ZM1394.35 505H1390.93L1385.21 496.34V505H1381.79V490.96H1385.21L1390.93 499.66V490.96H1394.35V505ZM1409.86 490.96V500.52C1409.86 502 1409.44 503.14 1408.6 503.94C1407.78 504.74 1406.66 505.14 1405.24 505.14C1403.76 505.14 1402.58 504.72 1401.68 503.88C1400.79 503.04 1400.34 501.847 1400.34 500.3H1403.74C1403.74 500.887 1403.86 501.333 1404.1 501.64C1404.34 501.933 1404.69 502.08 1405.14 502.08C1405.56 502.08 1405.88 501.947 1406.1 501.68C1406.33 501.413 1406.44 501.027 1406.44 500.52V490.96H1409.86ZM1416.05 493.7V496.54H1420.63V499.18H1416.05V502.26H1421.23V505H1412.63V490.96H1421.23V493.7H1416.05ZM1430.61 505L1427.69 499.7H1426.87V505H1423.45V490.96H1429.19C1430.29 490.96 1431.23 491.153 1432.01 491.54C1432.79 491.927 1433.38 492.46 1433.77 493.14C1434.15 493.807 1434.35 494.553 1434.35 495.38C1434.35 496.313 1434.08 497.147 1433.55 497.88C1433.03 498.613 1432.25 499.133 1431.23 499.44L1434.47 505H1430.61ZM1426.87 497.28H1428.99C1429.61 497.28 1430.08 497.127 1430.39 496.82C1430.71 496.513 1430.87 496.08 1430.87 495.52C1430.87 494.987 1430.71 494.567 1430.39 494.26C1430.08 493.953 1429.61 493.8 1428.99 493.8H1426.87V497.28ZM1439.85 490.96V499.36C1439.85 500.2 1440.06 500.847 1440.47 501.3C1440.89 501.753 1441.49 501.98 1442.29 501.98C1443.09 501.98 1443.71 501.753 1444.13 501.3C1444.56 500.847 1444.77 500.2 1444.77 499.36V490.96H1448.19V499.34C1448.19 500.593 1447.93 501.653 1447.39 502.52C1446.86 503.387 1446.14 504.04 1445.23 504.48C1444.34 504.92 1443.34 505.14 1442.23 505.14C1441.13 505.14 1440.13 504.927 1439.25 504.5C1438.39 504.06 1437.7 503.407 1437.19 502.54C1436.69 501.66 1436.43 500.593 1436.43 499.34V490.96H1439.85ZM1458.74 505L1454.02 498.8V505H1450.6V490.96H1454.02V497.12L1458.7 490.96H1462.72L1457.28 497.84L1462.92 505H1458.74Z" fill="#4E9882"/>
<path d="M1317.38 535L1312.66 528.8V535H1309.24V520.96H1312.66V527.12L1317.34 520.96H1321.36L1315.92 527.84L1321.56 535H1317.38ZM1322.51 529.4C1322.51 528.253 1322.72 527.247 1323.15 526.38C1323.59 525.513 1324.18 524.847 1324.93 524.38C1325.67 523.913 1326.51 523.68 1327.43 523.68C1328.21 523.68 1328.9 523.84 1329.49 524.16C1330.09 524.48 1330.55 524.9 1330.87 525.42V523.84H1334.29V535H1330.87V533.42C1330.53 533.94 1330.07 534.36 1329.47 534.68C1328.88 535 1328.19 535.16 1327.41 535.16C1326.5 535.16 1325.67 534.927 1324.93 534.46C1324.18 533.98 1323.59 533.307 1323.15 532.44C1322.72 531.56 1322.51 530.547 1322.51 529.4ZM1330.87 529.42C1330.87 528.567 1330.63 527.893 1330.15 527.4C1329.68 526.907 1329.11 526.66 1328.43 526.66C1327.75 526.66 1327.17 526.907 1326.69 527.4C1326.22 527.88 1325.99 528.547 1325.99 529.4C1325.99 530.253 1326.22 530.933 1326.69 531.44C1327.17 531.933 1327.75 532.18 1328.43 532.18C1329.11 532.18 1329.68 531.933 1330.15 531.44C1330.63 530.947 1330.87 530.273 1330.87 529.42ZM1341.3 535.16C1340.33 535.16 1339.46 534.993 1338.7 534.66C1337.94 534.327 1337.34 533.873 1336.9 533.3C1336.46 532.713 1336.21 532.06 1336.16 531.34H1339.54C1339.58 531.727 1339.76 532.04 1340.08 532.28C1340.4 532.52 1340.79 532.64 1341.26 532.64C1341.69 532.64 1342.01 532.56 1342.24 532.4C1342.48 532.227 1342.6 532.007 1342.6 531.74C1342.6 531.42 1342.43 531.187 1342.1 531.04C1341.77 530.88 1341.23 530.707 1340.48 530.52C1339.68 530.333 1339.01 530.14 1338.48 529.94C1337.95 529.727 1337.49 529.4 1337.1 528.96C1336.71 528.507 1336.52 527.9 1336.52 527.14C1336.52 526.5 1336.69 525.92 1337.04 525.4C1337.4 524.867 1337.92 524.447 1338.6 524.14C1339.29 523.833 1340.11 523.68 1341.06 523.68C1342.46 523.68 1343.56 524.027 1344.36 524.72C1345.17 525.413 1345.64 526.333 1345.76 527.48H1342.6C1342.55 527.093 1342.37 526.787 1342.08 526.56C1341.8 526.333 1341.43 526.22 1340.96 526.22C1340.56 526.22 1340.25 526.3 1340.04 526.46C1339.83 526.607 1339.72 526.813 1339.72 527.08C1339.72 527.4 1339.89 527.64 1340.22 527.8C1340.57 527.96 1341.1 528.12 1341.82 528.28C1342.65 528.493 1343.32 528.707 1343.84 528.92C1344.36 529.12 1344.81 529.453 1345.2 529.92C1345.6 530.373 1345.81 530.987 1345.82 531.76C1345.82 532.413 1345.63 533 1345.26 533.52C1344.9 534.027 1344.37 534.427 1343.68 534.72C1343 535.013 1342.21 535.16 1341.3 535.16ZM1349.63 522.68C1349.03 522.68 1348.54 522.507 1348.15 522.16C1347.78 521.8 1347.59 521.36 1347.59 520.84C1347.59 520.307 1347.78 519.867 1348.15 519.52C1348.54 519.16 1349.03 518.98 1349.63 518.98C1350.22 518.98 1350.7 519.16 1351.07 519.52C1351.46 519.867 1351.65 520.307 1351.65 520.84C1351.65 521.36 1351.46 521.8 1351.07 522.16C1350.7 522.507 1350.22 522.68 1349.63 522.68ZM1351.33 523.84V535H1347.91V523.84H1351.33ZM1353.13 529.4C1353.13 528.253 1353.34 527.247 1353.77 526.38C1354.21 525.513 1354.8 524.847 1355.55 524.38C1356.3 523.913 1357.13 523.68 1358.05 523.68C1358.84 523.68 1359.52 523.84 1360.11 524.16C1360.71 524.48 1361.17 524.9 1361.49 525.42V523.84H1364.91V535H1361.49V533.42C1361.16 533.94 1360.69 534.36 1360.09 534.68C1359.5 535 1358.82 535.16 1358.03 535.16C1357.12 535.16 1356.3 534.927 1355.55 534.46C1354.8 533.98 1354.21 533.307 1353.77 532.44C1353.34 531.56 1353.13 530.547 1353.13 529.4ZM1361.49 529.42C1361.49 528.567 1361.25 527.893 1360.77 527.4C1360.3 526.907 1359.73 526.66 1359.05 526.66C1358.37 526.66 1357.79 526.907 1357.31 527.4C1356.84 527.88 1356.61 528.547 1356.61 529.4C1356.61 530.253 1356.84 530.933 1357.31 531.44C1357.79 531.933 1358.37 532.18 1359.05 532.18C1359.73 532.18 1360.3 531.933 1360.77 531.44C1361.25 530.947 1361.49 530.273 1361.49 529.42ZM1374.18 523.72C1375.49 523.72 1376.53 524.147 1377.3 525C1378.09 525.84 1378.48 527 1378.48 528.48V535H1375.08V528.94C1375.08 528.193 1374.89 527.613 1374.5 527.2C1374.12 526.787 1373.6 526.58 1372.94 526.58C1372.29 526.58 1371.77 526.787 1371.38 527.2C1371 527.613 1370.8 528.193 1370.8 528.94V535H1367.38V523.84H1370.8V525.32C1371.15 524.827 1371.62 524.44 1372.2 524.16C1372.79 523.867 1373.45 523.72 1374.18 523.72ZM1387.08 532.1V535H1385.34C1384.1 535 1383.13 534.7 1382.44 534.1C1381.75 533.487 1381.4 532.493 1381.4 531.12V526.68H1380.04V523.84H1381.4V521.12H1384.82V523.84H1387.06V526.68H1384.82V531.16C1384.82 531.493 1384.9 531.733 1385.06 531.88C1385.22 532.027 1385.49 532.1 1385.86 532.1H1387.08ZM1394.07 535.16C1392.97 535.16 1391.99 534.927 1391.11 534.46C1390.24 533.993 1389.55 533.327 1389.05 532.46C1388.55 531.593 1388.31 530.58 1388.31 529.42C1388.31 528.273 1388.56 527.267 1389.07 526.4C1389.57 525.52 1390.27 524.847 1391.15 524.38C1392.03 523.913 1393.01 523.68 1394.11 523.68C1395.2 523.68 1396.19 523.913 1397.07 524.38C1397.95 524.847 1398.64 525.52 1399.15 526.4C1399.65 527.267 1399.91 528.273 1399.91 529.42C1399.91 530.567 1399.65 531.58 1399.13 532.46C1398.62 533.327 1397.92 533.993 1397.03 534.46C1396.15 534.927 1395.16 535.16 1394.07 535.16ZM1394.07 532.2C1394.72 532.2 1395.27 531.96 1395.73 531.48C1396.19 531 1396.43 530.313 1396.43 529.42C1396.43 528.527 1396.2 527.84 1395.75 527.36C1395.31 526.88 1394.76 526.64 1394.11 526.64C1393.44 526.64 1392.89 526.88 1392.45 527.36C1392.01 527.827 1391.79 528.513 1391.79 529.42C1391.79 530.313 1392 531 1392.43 531.48C1392.87 531.96 1393.41 532.2 1394.07 532.2Z" fill="black"/>
</svg>
